<?xml version="1.0" encoding="utf-8"?>
<!-- Generator: Adobe Illustrator 16.0.0, SVG Export Plug-In . SVG Version: 6.00 Build 0)  -->
<!DOCTYPE svg PUBLIC "-//W3C//DTD SVG 1.1//EN" "http://www.w3.org/Graphics/SVG/1.1/DTD/svg11.dtd">
<svg version="1.1" id="layer" xmlns="http://www.w3.org/2000/svg" xmlns:xlink="http://www.w3.org/1999/xlink" x="0px" y="0px"
	 width="726.41px" height="565.249px" viewBox="176.795 629.063 726.41 565.249"
	 enable-background="new 176.795 629.063 726.41 565.249" xml:space="preserve">
<path fill="#FFFFFF" d="M488.679,979.613c-17.137,0-25.661-9.931-25.661-25.31c0-14.5,8.7-27.682,28.297-27.682
	c3.076,0,7.206,0.352,10.458,1.318l-1.055,11.16c-3.251-1.055-6.679-1.67-10.106-1.67c-8.787,0-13.797,6.328-13.797,15.73
	c0,10.019,5.537,15.116,14.413,15.116c3.515,0,7.118-0.703,9.93-2.022l1.055,11.249
	C497.906,978.822,493.424,979.613,488.679,979.613 M559.598,978.822l-18.982-51.41H525.5l-19.07,51.41h12.831l3.251-8.964h19.861
	l3.164,8.964H559.598z M539.297,960.631H525.5l4.57-12.479c0.878-2.373,1.669-5.01,2.284-7.294h0.088
	c0.615,2.284,1.582,5.272,2.461,7.646L539.297,960.631z M597.561,937.431v-10.019h-31.109v51.41h12.743v-20.477h17.4v-9.754h-17.4
	v-11.161H597.561z M638.864,978.822v-10.194h-18.894V957.38h18.015v-9.667h-18.015v-10.282h18.894v-10.019h-31.637v51.41H638.864z
	 M374.436,760.794c32.516-65.646,100.183-110.903,178.307-110.903c80.938,0,150.801,48.685,181.734,118.197
	c5.625,4.306,10.106,9.93,13.357,16.697c3.252-4.395,7.031-8.349,11.161-11.776c-31.021-83.925-111.782-143.946-206.341-143.946
	c-89.9,0-167.321,54.309-201.331,131.731H374.436z M750.559,868.094c-9.755,100.622-94.734,179.538-197.904,179.538
	c-99.479,0-182.173-73.556-196.585-169.08c-2.021,0.264-4.219,0.439-6.592,0.439c-5.448,0-10.545-1.317-14.939-3.778
	c13.095,108.706,105.896,193.246,218.116,193.246c111.344,0,203.617-83.222,217.765-190.785
	C762.949,876.179,756.183,872.84,750.559,868.094 M359.057,839.357c0,2.549,1.494,3.955,4.482,3.955c2.284,0,3.866-0.352,5.36-0.879
	l-5.009,19.333c-2.813,2.285-6.68,4.043-14.325,4.043c-7.206,0-15.027-4.306-17.136-13.71h-0.176
	c-4.307,6.68-11.513,13.446-23.552,13.446c-13.709,0-26.54-13.357-26.54-31.637c0-32.778,20.916-61.516,45.521-61.516
	c9.052,0,15.73,5.624,18.191,11.073h0.176l2.373-9.403h27.33l-16.258,62.306C359.232,837.425,359.057,838.479,359.057,839.357
	 M318.369,843.664c11.424,0,20.563-19.686,20.563-35.063c0-8.964-3.516-14.501-8.612-14.501c-11.425,0-20.476,18.016-20.476,34.801
	C309.933,838.392,312.92,843.664,318.369,843.664 M266.959,726.96l-13.973,53.958h-25.924l14.148-53.958h-25.31
	c-6.151,8.964-13.357,14.589-26.715,14.589l-4.833,18.454c1.494,0.176,3.076,0.264,4.658,0.264c5.272,0,10.985-1.318,15.994-3.69
	l-28.209,107.827h28.561l15.818-60.637h25.925l-15.994,60.637h28.561l35.855-137.268h-28.562V726.96z M519.349,726.96h27.945
	l-35.854,137.268h-23.464l2.899-11.249H490.7c-4.307,6.152-11.688,12.392-22.673,12.392c-13.71,0-26.54-13.357-26.54-31.637
	c0-32.778,20.916-61.516,45.521-61.516c8.437,0,15.115,4.219,18.016,9.315h0.175L519.349,726.96z M477.693,843.664
	c11.425,0,20.652-19.686,20.652-35.063c0-8.964-3.604-14.501-8.612-14.501c-11.425,0-20.476,18.016-20.476,34.801
	C469.258,838.392,472.245,843.664,477.693,843.664 M442.19,772.481c-8.524,0-16.961,7.646-20.915,14.149h-0.264l3.163-12.655
	h-27.242l-23.552,90.252h27.946l11.16-42.533c2.987-11.513,10.019-23.903,20.915-23.903c3.164,0,6.064,0.967,8.085,2.197
	l6.854-26.276C446.673,773.009,444.563,772.481,442.19,772.481 M886.156,873.631c2.637,0,5.8-0.967,7.294-2.021l3.866,17.84
	c-4.042,3.515-11.512,5.976-18.63,5.976c-14.852,0-24.606-8.7-24.606-22.233c0-7.118,1.055-11.864,1.055-19.597
	c0-9.667-6.327-16.259-13.006-17.226l-7.294,27.946h-27.946l35.855-137.267h27.945l-14.5,55.803h0.176
	c5.536-6.151,13.885-10.282,22.937-10.282c15.203,0,23.903,9.843,23.903,21.618c0,20.301-20.037,33.219-36.118,36.383v0.176
	c6.503,4.657,11.336,15.203,11.336,25.572c0,3.516-0.176,5.976-0.176,8.964C878.423,870.643,880.532,873.631,886.156,873.631
	 M846.522,819.761c17.4,0,31.285-11.073,31.285-21.442c0-4.042-2.372-6.415-6.591-6.415
	C861.286,791.903,849.335,805.7,846.522,819.761 M706.531,772.307c19.509,0,33.394,14.235,33.394,37.699
	c0,29.089-21.354,55.452-50.091,55.452c-17.752,0-32.164-14.852-32.164-35.854C657.67,798.934,678.498,772.307,706.531,772.307
	 M693.086,844.367c10.809,0,20.3-19.949,20.3-35.855c0-9.051-3.163-16.169-9.052-16.169c-11.424,0-20.036,18.015-20.036,36.118
	C684.298,838.654,688.164,844.367,693.086,844.367 M772.968,827.318c0-20.915,11.688-35.151,24.167-35.151
	c6.415,0,11.688,3.69,14.939,6.854l5.186-20.125c-4.219-3.075-13.183-6.59-22.146-6.59c-26.891,0-48.773,28.296-48.773,56.154
	c0,21.882,14.765,36.997,33.57,36.997c7.382,0,12.566-1.494,15.643-2.813l5.448-21.267c-3.603,2.373-7.382,3.34-13.797,3.34
	C778.68,844.807,772.968,839.095,772.968,827.318 M654.243,875.564c3.954,0,6.767-0.791,8.788-2.197l4.13,18.015
	c-4.833,4.043-11.512,7.47-21.267,7.47c-17.313,0-29.527-9.754-29.527-25.748c0-14.588,3.516-21.442,3.516-34.976
	c0-12.919-8.35-24.167-17.4-26.628l-13.797,52.552h-28.474l28.034-107.564c-5.01,2.373-10.722,3.691-15.994,3.691
	c-1.582,0-3.164-0.088-4.658-0.264l4.834-18.455c13.357,0,20.563-5.624,26.715-14.588h26.979c29.176,0,42.445,15.379,42.445,36.47
	c0,20.037-19.333,39.194-37.964,43.236v0.439c6.503,4.043,15.115,16.434,15.115,32.779c0,9.14-0.967,17.84-0.967,25.397
	C644.84,871.521,648.882,875.564,654.243,875.564 M613.467,791.2c17.488,0,26.188-12.918,26.188-26.804
	c0-9.579-4.481-17.312-16.521-17.312h-3.779l-11.512,44.203h5.624"/>
<path fill="#FFFFFF" d="M793.526,892.116c-0.438-0.548-0.876-1.096-1.205-1.425c2.521-0.109,4.384-1.534,4.384-3.946
	c0-2.302-1.754-3.507-4.932-3.507c-1.645,0-2.96,0-3.728,0v13.701h1.974v-6.139h0.109l4.822,6.139h2.521L793.526,892.116z
	 M790.02,889.376v-4.604c0.438-0.109,0.768-0.109,1.425-0.109c1.863,0,3.069,0.767,3.069,2.192c0,1.534-1.206,2.521-2.96,2.521
	C791.006,889.376,790.458,889.376,790.02,889.376"/>
<path fill="#FFFFFF" d="M792.212,877.319c-7.016,0-12.715,5.699-12.715,12.715c0,7.124,5.48,12.714,12.715,12.714
	c6.905,0,12.714-5.809,12.714-12.714C804.926,882.8,799.336,877.319,792.212,877.319 M792.212,901.104
	c-6.028,0-10.852-5.152-10.852-11.29c0-6.028,4.823-10.961,10.852-10.961s10.851,5.152,10.851,11.181
	C803.063,896.172,798.24,901.104,792.212,901.104"/>
<g>
	<path fill="#FFFFFF" d="M353.482,1129.656c12.396,0,19.297,5.762,19.297,15.946c0,10.251-6.901,15.946-19.297,15.946h-8.308v16.951
		h-12.597v-48.844H353.482z M345.175,1152.437h6.968c4.824,0,7.638-2.479,7.638-6.834c0-4.355-2.813-6.835-7.638-6.835h-6.968
		V1152.437z"/>
	<path fill="#FFFFFF" d="M422.426,1135.553c4.488,4.488,6.699,10.652,6.699,18.559s-2.211,14.138-6.699,18.627
		c-4.423,4.488-10.587,6.7-18.426,6.7s-13.937-2.212-18.426-6.7c-4.488-4.489-6.7-10.721-6.7-18.627s2.212-14.07,6.7-18.559
		c4.489-4.49,10.587-6.768,18.426-6.768S418.003,1131.063,422.426,1135.553z M391.873,1154.111c0,10.251,4.422,16.215,12.127,16.215
		s12.127-5.964,12.127-16.215s-4.422-16.215-12.127-16.215S391.873,1143.86,391.873,1154.111z"/>
	<path fill="#FFFFFF" d="M451.904,1129.656c7.437,0,12.931,0.535,16.549,1.607c3.686,1.006,6.768,2.814,9.381,5.36
		c4.556,4.355,6.767,10.117,6.767,17.421c0,7.303-2.211,13.132-6.767,17.487c-2.613,2.546-5.763,4.354-9.447,5.427
		c-3.686,1.005-9.18,1.541-16.482,1.541h-13.267v-48.844H451.904z M451.234,1168.985h4.488c10.252,0,15.88-5.226,15.88-14.94
		c0-9.716-5.494-14.875-15.88-14.875h-4.488V1168.985z"/>
	<path fill="#FFFFFF" d="M517.898,1179.438c-8.107,0-14.606-2.278-19.363-6.768c-4.757-4.556-7.103-10.721-7.103-18.56
		s2.412-14.07,7.236-18.559c4.892-4.49,11.524-6.768,19.899-6.768c6.499,0,12.463,1.206,17.756,3.618v10.117
		c-5.428-3.149-10.787-4.624-16.215-4.624c-9.983,0-15.678,5.83-15.678,16.215c0,10.386,5.427,16.215,15.075,16.215
		c2.68,0,4.891-0.269,6.7-1.005v-9.515h-7.705v-8.442h19.631v23.518C531.902,1177.897,525.067,1179.438,517.898,1179.438z"/>
	<path fill="#FFFFFF" d="M589.991,1135.553c4.488,4.488,6.7,10.652,6.7,18.559s-2.212,14.138-6.7,18.627
		c-4.423,4.488-10.587,6.7-18.426,6.7s-13.937-2.212-18.426-6.7c-4.488-4.489-6.7-10.721-6.7-18.627s2.212-14.07,6.7-18.559
		c4.489-4.49,10.587-6.768,18.426-6.768S585.568,1131.063,589.991,1135.553z M559.438,1154.111c0,10.251,4.422,16.215,12.127,16.215
		s12.127-5.964,12.127-16.215s-4.422-16.215-12.127-16.215S559.438,1143.86,559.438,1154.111z"/>
	<path fill="#FFFFFF" d="M618.8,1178.5h-12.597v-48.844h19.229c12.864,0,18.626,4.154,18.626,13.467
		c0,6.433-3.148,10.587-9.38,12.529c3.484,0.805,6.03,3.351,8.777,8.979l6.834,13.869h-13.4l-5.963-12.127
		c-2.412-4.892-4.489-6.365-8.576-6.365H618.8V1178.5z M631.463,1144.999c0-4.489-2.077-6.231-7.37-6.231H618.8v12.53h5.293
		C629.386,1151.298,631.463,1149.488,631.463,1144.999z"/>
	<path fill="#FFFFFF" d="M670.389,1129.656v48.844h-12.597v-48.844H670.389z"/>
	<path fill="#FFFFFF" d="M706.367,1179.438c-8.107,0-14.606-2.278-19.363-6.768c-4.757-4.556-7.103-10.721-7.103-18.56
		s2.346-14.003,7.103-18.492c4.757-4.557,11.256-6.834,19.363-6.834c5.428,0,10.452,1.206,15.075,3.618v10.117
		c-4.623-3.216-9.045-4.624-14.07-4.624c-9.045,0-14.472,6.098-14.472,16.215s5.427,16.215,14.472,16.215
		c5.025,0,9.447-1.407,14.07-4.623v10.117C716.819,1178.232,711.795,1179.438,706.367,1179.438z"/>
	<path fill="#FFFFFF" d="M741.81,1169.589l-3.082,8.911h-12.663l18.091-48.844h15.008l18.091,48.844H764.59l-3.082-8.911H741.81z
		 M758.359,1160.544l-6.7-19.431l-6.7,19.431H758.359z"/>
</g>
</svg>
