<?xml version="1.0" encoding="utf-8"?>
<!-- Generator: Adobe Illustrator 25.2.1, SVG Export Plug-In . SVG Version: 6.00 Build 0)  -->
<svg version="1.1" xmlns="http://www.w3.org/2000/svg" xmlns:xlink="http://www.w3.org/1999/xlink"
	x="0px" y="0px"
	viewBox="0 0 633.6 664.3" style="enable-background:new 0 0 633.6 664.3;" xml:space="preserve">
<style type="text/css">
	.st0{fill:#FCEBD9;}
	.st1{fill:none;}
	.st2{fill:#616858;}
	.st3{fill:none;stroke:#455C6B;stroke-miterlimit:10;}
	.st4{fill:#C5EAFF;}
	.st5{fill:#B7D372;}
	.st6{fill:#B6C691;}
	.st7{fill:#EAA7A2;}
	.st8{fill:#665F57;}
</style>
<g id="BACKGROUND">
</g>
<g id="OBJECTS">
</g>
<g id="maslachci">
</g>
<g id="lisje-maslac">
</g>
<g id="lisje">
</g>
<g id="cvetak">
</g>
<g id="linije_cvetja">
	<g>
		<path class="st0" d="M316.7,34.8C144,34.8,4,174.8,4,347.4c0,172.7,140,312.7,312.7,312.7c172.7,0,312.7-140,312.7-312.7
			C629.3,174.8,489.4,34.8,316.7,34.8z M132.1,539c2.2,1.1,4.3,4.3,6.5,5.4C136.4,543.3,134.2,540.1,132.1,539z M154.7,560.5
			c2.2,1.1,4.3,3.2,6.5,4.3C159,563.8,156.8,561.6,154.7,560.5z M180.5,579.9c2.2,1.1,4.3,2.2,5.4,4.3
			C184.8,582,182.6,581,180.5,579.9z M599,348c-2,0-4,0-6,0C595,348,597,348,599,348z"/>
		<path class="st1" d="M27.6,440.5c-53.8-163.2,34.9-339,198-392.8c163.2-53.8,339,34.9,392.8,198"/>
		<g>
			<path class="st2" d="M267,577.5c-0.6,1.5-1.2,3-1.7,4.4c-0.5,1.4-0.9,2.6-1.1,3.3c-0.3,1-0.6,1.9-0.8,2.8
				c-0.2,0.9-0.4,1.7-0.6,2.3l-1.4-0.4c0.6-3,0.9-5.4,0.9-7.2c0-1.8-0.5-3.3-1.5-4.4c-1-1.1-2.8-2.1-5.4-2.9l-3.3-1l-10.8,35.2
				c-0.5,1.7-0.7,2.9-0.7,3.9c0.1,0.9,0.5,1.7,1.3,2.2c0.8,0.6,2.1,1.2,3.8,1.8l-0.4,1.2c-1-0.4-2.4-0.9-4-1.4c-1.6-0.5-3.3-1-5-1.6
				c-1.9-0.6-3.6-1.1-5.2-1.6c-1.6-0.5-3-0.8-4-1l0.4-1.2c1.8,0.4,3.1,0.7,4.1,0.7c1,0,1.8-0.4,2.3-1.1c0.6-0.7,1.1-1.9,1.6-3.6
				l10.8-35.2l-3.3-1c-2.6-0.8-4.6-1-6.1-0.6c-1.5,0.4-2.7,1.3-3.7,2.8c-1,1.5-2.1,3.7-3.3,6.5l-1.4-0.4c0.3-0.6,0.6-1.4,0.9-2.2
				c0.3-0.9,0.6-1.8,0.9-2.8c0.2-0.8,0.6-1.9,0.9-3.4c0.4-1.5,0.7-3,1.1-4.7c1.7,0.6,3.6,1.2,5.6,1.9c2,0.7,4.1,1.3,6.1,1.9
				c2.1,0.6,3.9,1.2,5.6,1.7c1.7,0.5,3.6,1.1,5.6,1.7c2,0.6,4.1,1.2,6.2,1.8C263.4,576.5,265.3,577.1,267,577.5z"/>
			<path class="st2" d="M284,579.6l9.6,42.6c0.4,1.7,1,2.9,1.7,3.6c0.7,0.7,1.4,1.1,2.1,1.2l-0.2,1.3c-0.8-0.2-1.9-0.4-3.1-0.6
				c-1.2-0.2-2.5-0.4-3.7-0.6c-1.7-0.2-3.2-0.5-4.7-0.7c-1.5-0.2-2.6-0.3-3.5-0.4l0.2-1.3c2.2,0.2,3.6,0.1,4.3-0.5
				c0.7-0.6,0.8-2,0.3-4.3l-7.1-33.6l1.1-0.7l-15.5,27.3c-0.9,1.6-1.6,3-1.9,4.1c-0.3,1.2-0.3,2.1-0.1,2.8c0.3,0.7,0.8,1.3,1.6,1.8
				c0.8,0.4,1.9,0.8,3.2,1l-0.2,1.3c-1.2-0.3-2.4-0.5-3.7-0.7c-1.3-0.2-2.5-0.4-3.6-0.6c-1.1-0.2-2-0.3-2.7-0.4
				c-0.8-0.1-1.5-0.1-2.1-0.2l0.2-1.3c0.9-0.1,1.8-0.5,2.8-1.1c1-0.7,2-1.9,3-3.7l20.9-36.5c0.2,0,0.3,0.1,0.5,0.1
				C283.6,579.6,283.8,579.6,284,579.6z M287.7,608l-0.2,1.3l-19.1-2.9l0.8-1.2L287.7,608z"/>
			<path class="st2" d="M342.8,582.1l0,1.3c-1.5,0.1-2.6,0.3-3.3,0.7c-0.7,0.4-1.2,1-1.5,1.9c-0.2,0.9-0.4,2.1-0.3,3.7l0.7,38.6
				c-0.3,0-0.5,0-0.7,0c-0.2,0-0.5,0-0.7,0l-27.9-41.5l0.6,34.2c0,1.6,0.2,2.8,0.5,3.6c0.3,0.9,0.9,1.5,1.7,1.8
				c0.8,0.4,2.1,0.6,3.8,0.6l0,1.3c-0.8-0.1-1.8-0.1-3-0.1c-1.3,0-2.4,0-3.6,0c-1.1,0-2.2,0.1-3.3,0.1c-1.1,0-2,0.1-2.7,0.2l0-1.3
				c1.5-0.1,2.6-0.4,3.3-0.7c0.7-0.4,1.2-1,1.5-1.9c0.2-0.9,0.4-2.1,0.3-3.7l-0.6-31.5c0-1.6-0.2-2.8-0.5-3.5
				c-0.3-0.8-0.8-1.3-1.5-1.5c-0.8-0.3-1.9-0.4-3.3-0.4l0-1.3c0.7,0,1.7,0.1,2.8,0.1c1.1,0,2.2,0,3.3,0c0.9,0,1.9-0.1,2.7-0.1
				c0.9-0.1,1.6-0.1,2.3-0.2l23.5,34.8l-0.5-27.7c0-1.6-0.2-2.8-0.5-3.7c-0.3-0.9-0.9-1.5-1.7-1.8c-0.8-0.4-2.1-0.6-3.8-0.6l0-1.3
				c0.8,0,1.8,0.1,3.1,0.1c1.3,0,2.4,0,3.5,0c1.1,0,2.2-0.1,3.3-0.1C341.2,582.2,342.1,582.1,342.8,582.1z"/>
			<path class="st2" d="M365.3,576.7c2.7-0.6,5.1-0.6,6.9-0.1c1.9,0.5,3.6,1.1,5.3,1.9c0.6,0.3,1.1,0.4,1.4,0.4
				c0.8-0.2,1.1-1.6,0.8-4.2l1.5-0.3c0.2,1.6,0.6,3.5,1,5.7c0.4,2.3,1,5.2,1.7,8.9l-1.5,0.3c-0.7-1.7-1.4-3.4-2.1-4.9
				c-0.8-1.6-1.7-2.8-3-3.8c-1.5-1.3-3.4-2.2-5.6-2.7c-2.2-0.5-4.3-0.5-6.4-0.1c-2.1,0.4-3.9,1.3-5.4,2.7c-1.5,1.4-2.7,3.2-3.5,5.4
				c-0.8,2.2-1.3,4.7-1.4,7.6c-0.1,2.9,0.2,6,0.9,9.4c1.5,7.6,3.9,12.9,7.1,16c3.2,3,7.3,4,12.5,3c1.5-0.3,2.8-0.8,3.8-1.5
				c1-0.7,1.8-1.3,2.4-1.8c0.7-0.7,1.1-1.3,1.2-1.9c0.1-0.5,0.1-1.2-0.1-2l-1.2-6.1c-0.3-1.7-0.8-3-1.3-3.8
				c-0.5-0.8-1.2-1.2-2.2-1.3c-1-0.1-2.3,0-4.1,0.3l-0.3-1.3c0.8-0.1,1.7-0.3,2.7-0.4c1-0.2,2.1-0.4,3.2-0.6
				c1.1-0.2,2.2-0.4,3.1-0.6c1.4-0.3,2.6-0.6,3.8-0.8c1.1-0.3,2-0.5,2.8-0.7l0.3,1.3c-0.9,0.2-1.6,0.5-2,0.9
				c-0.4,0.3-0.6,0.9-0.6,1.7c0,0.8,0.2,2,0.5,3.5l2.5,12.6l-1.3,0.3c-0.2-0.7-0.5-1.5-0.9-2.3c-0.4-0.8-0.9-1.1-1.5-1
				c-0.3,0.1-0.5,0.2-0.7,0.3c-0.2,0.2-0.6,0.6-1.2,1.2c-1.2,1.3-2.5,2.5-3.9,3.4c-1.4,0.9-3.2,1.6-5.3,2c-4.4,0.9-8.3,0.7-11.7-0.4
				c-3.5-1.2-6.4-3.3-8.7-6.3c-2.3-3-4-6.9-4.9-11.6c-1-4.9-1-9.4,0.1-13.4c1.1-4,2.9-7.2,5.6-9.8
				C358,579.2,361.4,577.5,365.3,576.7z"/>
			<path class="st2" d="M405,564.5c3.8-1.5,7.5-2,11-1.5c3.6,0.6,6.8,2.1,9.7,4.7c2.9,2.6,5.3,6.2,7.1,10.8
				c1.8,4.5,2.6,8.7,2.4,12.7c-0.2,4-1.4,7.5-3.5,10.6c-2.1,3.1-5,5.3-8.7,6.9c-3.8,1.5-7.5,2-11,1.5c-3.6-0.6-6.8-2.1-9.7-4.7
				c-2.9-2.6-5.3-6.2-7.1-10.7c-1.8-4.5-2.6-8.7-2.3-12.7c0.3-4,1.4-7.6,3.5-10.6C398.4,568.3,401.3,566,405,564.5z M405.2,565.7
				c-2.6,1.1-4.5,2.9-5.7,5.5c-1.2,2.6-1.7,5.7-1.4,9.3c0.2,3.6,1.2,7.5,2.9,11.6c1.7,4.2,3.8,7.7,6.3,10.3c2.5,2.7,5,4.4,7.8,5.3
				c2.7,0.9,5.3,0.8,7.7-0.2c2.6-1.1,4.5-2.9,5.7-5.5c1.2-2.6,1.7-5.7,1.4-9.3c-0.2-3.6-1.2-7.5-2.9-11.6c-1.7-4.3-3.8-7.7-6.3-10.4
				c-2.5-2.6-5-4.4-7.7-5.3C410.3,564.6,407.7,564.7,405.2,565.7z"/>
			<path class="st2" d="M466.1,529.5c0.8,1.3,1.5,2.6,2.3,3.8c0.8,1.2,1.4,2.1,1.8,2.7c0.5,0.6,0.9,1.2,1.4,1.8
				c0.5,0.6,0.8,1,1.2,1.4l-1.2,0.9c-1.7-1.9-3.2-3.3-4.5-4.2c-1.3-0.9-2.5-1.3-3.8-1.1c-1.3,0.2-2.9,0.9-4.7,2.3l-4.3,3.2
				c-1.2,0.9-2,1.6-2.5,2.2c-0.5,0.6-0.6,1.3-0.4,2.1c0.2,0.8,0.8,1.8,1.8,3.1l18.9,26c0.9,1.3,1.7,2.1,2.4,2.6
				c0.7,0.5,1.4,0.6,2.1,0.3c0.8-0.3,1.7-0.8,2.9-1.7l3.8-2.8c2.2-1.6,3.6-3.1,4.3-4.5c0.7-1.4,0.8-3,0.3-4.7
				c-0.5-1.7-1.4-3.8-2.9-6.3l1.2-0.9c0.6,1,1.4,2.3,2.6,3.9c0.5,0.7,1.2,1.6,2.2,2.8c1,1.2,2,2.4,3.1,3.6c-1.8,1.2-3.9,2.6-6.1,4.2
				c-2.2,1.6-4.2,3-6,4.3c-0.8,0.6-1.8,1.3-3,2.2c-1.2,0.9-2.5,1.8-3.9,2.9c-1.4,1-2.8,2.1-4.2,3.1c-1.4,1.1-2.8,2.1-4,3.1l-0.8-1
				c1.1-0.9,1.9-1.7,2.4-2.4c0.5-0.7,0.6-1.4,0.3-2.2c-0.2-0.8-0.8-1.8-1.7-3.1l-18.9-26c-0.9-1.3-1.7-2.2-2.4-2.6
				c-0.7-0.5-1.4-0.6-2.1-0.4c-0.8,0.2-1.8,0.7-3,1.6l-0.8-1c1.3-0.9,2.7-1.9,4.1-2.9c1.4-1,2.9-2,4.3-3c1.4-1,2.7-1.9,3.9-2.8
				c1.2-0.9,2.2-1.6,3-2.2c1.6-1.2,3.4-2.5,5.4-4C462.8,532.1,464.6,530.7,466.1,529.5z M470.2,554l0.8,1l-9.6,7l-0.8-1L470.2,554z
				 M466.6,545.9c1.3,2.1,2.4,3.7,3.1,4.7c0.8,1,1.5,2,2.1,2.9c0.6,0.9,1.4,1.8,2.1,2.8c0.8,1,2,2.5,3.6,4.4l-1.2,0.9
				c-1-1-1.9-2-2.9-2.9c-1-0.9-2-1.5-3.2-1.7c-1.1-0.2-2.5,0.2-4,1.4l-0.8-1c1.2-0.8,1.9-1.7,2.1-2.6c0.3-0.9,0.3-1.8,0-2.8
				c-0.3-0.9-0.6-1.8-1.1-2.7c-0.5-0.9-0.9-1.6-1.2-2.3L466.6,545.9z"/>
			<path class="st2" d="M498.1,498.2l0.9,0.9c-1,1.1-1.6,2-1.9,2.8c-0.3,0.8-0.2,1.6,0.3,2.4c0.4,0.8,1.2,1.7,2.4,2.9l27.6,27.1
				c-0.2,0.2-0.4,0.4-0.5,0.5c-0.2,0.2-0.3,0.3-0.5,0.5l-49-10.1l24.4,24c1.1,1.1,2.1,1.8,2.9,2.3c0.8,0.4,1.7,0.5,2.5,0.1
				c0.9-0.3,1.9-1.1,3.1-2.2l0.9,0.9c-0.6,0.5-1.4,1.2-2.2,2.1c-0.9,0.9-1.7,1.7-2.5,2.5c-0.8,0.8-1.5,1.6-2.3,2.4
				c-0.8,0.8-1.4,1.5-1.8,2.1l-0.9-0.9c1-1.1,1.6-2.1,1.9-2.9c0.3-0.8,0.2-1.6-0.3-2.4c-0.4-0.8-1.2-1.8-2.3-2.8l-22.4-22.1
				c-1.1-1.1-2.1-1.9-2.8-2.2c-0.7-0.3-1.4-0.3-2.2,0c-0.7,0.3-1.6,1-2.7,2l-0.9-0.9c0.5-0.5,1.2-1.1,2-1.9c0.8-0.8,1.6-1.5,2.3-2.3
				c0.7-0.7,1.3-1.3,1.9-2c0.6-0.6,1.1-1.2,1.5-1.8l41.1,8.4l-19.8-19.4c-1.1-1.1-2.1-1.9-2.9-2.3c-0.8-0.4-1.7-0.4-2.5-0.1
				c-0.9,0.3-1.9,1.1-3.1,2.2l-0.9-0.9c0.6-0.5,1.3-1.2,2.2-2.1c0.9-0.9,1.8-1.7,2.5-2.5c0.8-0.8,1.5-1.6,2.3-2.4
				C497,499.4,497.6,498.7,498.1,498.2z"/>
			<path class="st2" d="M524.9,456.7c1.3,1,2.6,1.9,3.9,2.8c1.3,0.9,2.3,1.5,3,1.9c0.9,0.5,1.7,1,2.5,1.5c0.8,0.4,1.5,0.8,2.1,1.1
				l-0.8,1.3c-2.7-1.3-5-2.2-6.8-2.7c-1.8-0.5-3.3-0.3-4.6,0.4c-1.3,0.7-2.7,2.2-4.1,4.5L518,471c-0.8,1.3-1.2,2.3-1.4,3
				c-0.2,0.8,0,1.5,0.5,2.1c0.5,0.6,1.5,1.3,2.8,2.2l27.4,16.7c1.3,0.8,2.4,1.3,3.2,1.4c0.8,0.1,1.6-0.1,2.3-0.8
				c0.7-0.7,1.6-1.8,2.6-3.3l1.1,0.7c-0.7,0.9-1.4,2.1-2.4,3.6c-0.9,1.5-1.8,3-2.7,4.5c-0.9,1.4-1.7,2.8-2.4,4.1
				c-0.7,1.3-1.3,2.3-1.7,3.1l-1.1-0.7c0.7-1.3,1.1-2.3,1.3-3.1c0.2-0.8,0-1.5-0.5-2.1c-0.5-0.6-1.5-1.3-2.8-2.1l-27.4-16.7
				c-1.4-0.8-2.4-1.3-3.2-1.5c-0.8-0.2-1.5,0-2.1,0.5c-0.6,0.5-1.3,1.4-2.1,2.6l-1.1-0.7c0.9-1.3,1.8-2.8,2.7-4.3
				c0.9-1.5,1.9-3,2.8-4.4c0.9-1.5,1.8-2.8,2.5-4.1c0.8-1.3,1.4-2.3,1.9-3.1c1-1.7,2.2-3.6,3.5-5.8
				C522.9,460.4,524,458.4,524.9,456.7z M532.5,471.6c2,1.4,3.6,2.5,4.7,3.1c1.1,0.7,2.1,1.3,3.1,1.8c0.9,0.6,1.9,1.2,3.1,1.8
				c1.1,0.6,2.8,1.5,5,2.6l-0.8,1.3c-1.3-0.6-2.5-1.1-3.8-1.6c-1.2-0.5-2.4-0.6-3.6-0.4c-1.1,0.2-2.2,1.2-3.2,2.8l-1.1-0.7
				c0.7-1.2,1.1-2.3,1-3.2c-0.1-0.9-0.5-1.8-1.1-2.6c-0.6-0.8-1.3-1.5-2-2.1c-0.8-0.6-1.4-1.2-2-1.7L532.5,471.6z M539.2,477.1
				l1.1,0.7l-6.7,11.1l-1.1-0.7L539.2,477.1z"/>
			<path class="st2" d="M532.2,439.7l1.2,0.5c-0.5,1.4-0.8,2.5-0.8,3.3c0,0.8,0.3,1.5,0.8,2c0.6,0.5,1.6,1.1,3.1,1.7l29.6,12.4
				c1.4,0.6,2.6,0.9,3.4,1c0.8,0.1,1.5-0.2,2-0.8c0.5-0.6,1-1.6,1.6-2.9l1.8-4.4c0.8-1.9,1.2-3.5,1.3-4.8c0.1-1.3-0.1-2.5-0.7-3.6
				c-0.6-1.1-1.5-2.1-2.8-3c-1.3-1-2.9-2-4.9-3l0.6-1.4c1.2,0.6,2.8,1.4,4.8,2.2c0.8,0.3,1.9,0.7,3.3,1.3c1.4,0.5,2.9,1,4.5,1.5
				c-0.9,2-1.9,4.3-3,6.8c-1.1,2.5-2,4.8-2.9,6.8c-0.4,0.9-0.8,2-1.4,3.4c-0.6,1.4-1.2,2.9-1.8,4.5c-0.6,1.6-1.3,3.2-2,4.9
				c-0.7,1.6-1.3,3.2-1.9,4.7l-1.2-0.5c0.5-1.4,0.8-2.5,0.8-3.3c0.1-0.8-0.2-1.5-0.8-2c-0.6-0.5-1.6-1.1-3.1-1.7l-29.6-12.4
				c-1.5-0.6-2.6-0.9-3.4-1c-0.8-0.1-1.5,0.2-2,0.8c-0.5,0.6-1.1,1.6-1.7,2.9l-1.2-0.5c0.4-0.8,0.9-1.9,1.5-3.2
				c0.6-1.3,1.2-2.8,1.9-4.3c0.6-1.4,1.1-2.8,1.7-4.2C531.4,441.8,531.8,440.7,532.2,439.7z"/>
			<path class="st2" d="M543.4,401.7c0.9-4,2.6-7.3,5.1-9.9c2.5-2.6,5.6-4.3,9.4-5.2c3.8-0.9,8.1-0.8,12.9,0.3
				c4.7,1.1,8.6,2.9,11.8,5.4c3.1,2.5,5.4,5.5,6.6,9c1.3,3.5,1.5,7.2,0.6,11.1c-0.9,4-2.6,7.3-5.1,9.9c-2.5,2.6-5.6,4.3-9.4,5.2
				c-3.8,0.9-8.1,0.8-12.9-0.3c-4.7-1.1-8.6-2.9-11.8-5.4c-3.1-2.5-5.4-5.5-6.6-9C542.7,409.3,542.5,405.6,543.4,401.7z
				 M544.4,402.2c-0.6,2.7-0.2,5.3,1.2,7.8c1.4,2.5,3.7,4.6,6.8,6.5c3.1,1.9,6.8,3.3,11.2,4.3c4.5,1,8.5,1.3,12.1,0.8
				c3.6-0.5,6.5-1.6,8.8-3.3c2.3-1.7,3.7-3.9,4.3-6.4c0.6-2.7,0.2-5.3-1.2-7.8c-1.4-2.5-3.7-4.6-6.8-6.5c-3.1-1.9-6.8-3.3-11.1-4.3
				c-4.5-1-8.5-1.3-12.1-0.8c-3.6,0.5-6.5,1.6-8.7,3.3C546.5,397.4,545,399.6,544.4,402.2z"/>
			<path class="st2" d="M572.2,370.4l1.3,0.1l0-0.4l-1.1,0.1c0-0.3,0.1-0.6,0.1-1l-0.2,0L572.2,370.4z"/>
			<path class="st2" d="M573.5,370l0-0.8l-1.1-0.1c0,0.3-0.1,0.6-0.1,1L573.5,370z"/>
			<polygon class="st2" points="573.8,364.2 573.8,364.2 573.8,364.5 			"/>
			<path class="st2" d="M573.5,370l0,0.4l-1.3-0.1l0.1-1.2l-15.9-0.8c-2.2-0.1-3.7-0.5-4.4-1.1c-0.7-0.6-1-1.9-0.9-3.9
				c0.2-3.9,1.3-6.6,3.2-8.2c2-1.5,4.6-2.2,8-2c2,0.1,3.8,0.5,5.4,1.1c1.6,0.7,2.8,1.8,3.7,3.5c0.9,1.7,1.3,4,1.1,7.1l-0.2,4.3
				l0.2,0c0.2-1.9,0.3-3.4,0.5-4.5c0.2-1.3,0.3-2.4,0.4-3.3c0.1-0.6,0.2-1.1,0.3-1.6c-0.1-1.5-0.4-2.8-0.8-3.9c-0.7-2.2-1.7-4-3-5.4
				c-1.2-1.3-2.6-2.3-4-2.9c-1.4-0.6-2.8-0.9-4.1-1c-2.1-0.1-4,0.4-5.8,1.4c-1.8,1.1-3.2,2.7-4.3,5c-1.1,2.3-1.7,5.1-1.9,8.6
				c0,0.8-0.1,2.1-0.1,3.9c0,1.9-0.1,3.8-0.2,5.8c-0.1,1.4-0.2,2.9-0.3,4.3c-0.1,1.5-0.2,2.6-0.3,3.5l1.3,0.1
				c0.1-1.5,0.3-2.6,0.6-3.3c0.3-0.7,0.9-1.2,1.6-1.4c0.8-0.2,1.9-0.3,3.5-0.2l32.1,1.5c1.6,0.1,2.7,0.3,3.5,0.6
				c0.8,0.3,1.3,0.8,1.5,1.6c0.2,0.8,0.3,1.9,0.4,3.4l1.3,0.1c0-0.9,0-2.1,0-3.6c0-1.5,0.1-3,0.2-4.7c0.1-1.5,0.2-3,0.2-4.5
				c0.1-1.5,0.2-2.7,0.3-3.7l-1.3-0.1c-0.2,1.5-0.4,2.6-0.7,3.3c-0.3,0.7-0.8,1.2-1.6,1.4c-0.8,0.2-2,0.3-3.5,0.2l-14.9-0.7
				L573.5,370L573.5,370z"/>
			<rect x="573.5" y="369.2" class="st2" width="0" height="0.8"/>
			<path class="st2" d="M573.7,359.7c-0.1,0.5-0.2,1.1-0.3,1.6c-0.1,0.8-0.3,1.9-0.4,3.3c-0.1,1.1-0.3,2.7-0.5,4.5l1.1,0.1l0.2-4.7
				l0-0.3C573.9,362.6,573.8,361.1,573.7,359.7z"/>
			<path class="st2" d="M593.3,348c-0.9,0.4-2.1,0.7-3.8,1l-6.7,1.3c-2.7,0.5-4.7,1.3-6,2.5c-1.3,1.2-2.3,3.2-2.9,6.1
				c-0.1,0.2-0.1,0.5-0.1,0.8c0.1,1.4,0.2,2.8,0.1,4.5l0.1-1.2c0.1-1.7,0.5-3,1.4-3.9c0.8-0.8,1.9-1.5,3.3-1.9
				c1.4-0.4,3-0.8,4.9-1.1l6.5-1.1c2.8-0.5,4.7-1.3,5.7-2.5c1-1.2,1.5-2.5,1.6-4.1c0-0.2,0-0.3,0-0.4C595.9,348,594.6,348,593.3,348
				z"/>
			<polygon class="st2" points="573.6,369.2 573.8,364.5 573.6,369.2 			"/>
		</g>
		<path class="st2" d="M207.1,607c-29.8-12.9-57-30.9-80.9-53.5c-54.6-51.5-85.8-121.2-88-196.2c-2.2-75,25-146.4,76.5-201
			c45.8-48.6,107.6-79.3,173.9-86.4l0.4,4c-65.3,7.1-126.2,37.4-171.4,85.2c-50.8,53.8-77.6,124.2-75.5,198.1
			c2.1,74,32.9,142.7,86.7,193.4c23.5,22.2,50.3,39.9,79.7,52.7L207.1,607z"/>
		<path class="st3" d="M294.7,72.2"/>
		<path class="st3" d="M403,83.8"/>
		<path class="st2" d="M424.4,93.6c-7.2-2.9-14.6-5.6-22-7.9l1.2-3.8c7.5,2.4,15.1,5.1,22.3,8L424.4,93.6z"/>
		<path class="st3" d="M425.2,91.8"/>
		<path class="st1" d="M152.5,558l3.2,9.7l4.9-1.6l-1-3C158.6,560.1,157.4,556.4,152.5,558z"/>
		<path class="st1" d="M152.5,558c4.9-1.6,6.1,2,7.1,5.1l-2.2-6.7L152.5,558z"/>
		<path class="st2" d="M520.7,156.7c-22.5-23.9-48.6-43.4-77.6-58.1l-1.8,3.6c28.6,14.5,54.3,33.7,76.5,57.2
			c46.9,49.7,74.4,118.4,75.5,188.6c1.3,0,2.6,0,4,0C596.1,276.8,568.2,207.1,520.7,156.7z"/>
		<path class="st4" d="M396.4,60.4c0,24.4-19.8,44.2-44.2,44.2c-24.4,0-44.2-19.8-44.2-44.2c0-24.4,19.8-44.2,44.2-44.2
			C376.6,16.1,396.4,35.9,396.4,60.4z"/>
		<path class="st4" d="M278,164.9c0,24.2-19.6,43.8-43.8,43.8c-24.2,0-43.8-19.6-43.8-43.8c0-24.2,19.6-43.8,43.8-43.8
			C258.4,121.1,278,140.7,278,164.9z"/>
		<path class="st5" d="M314.4,123.9c0,0-0.6,17,2.9,16.1c3.6-0.9,1.7-7.3,1.3-9.4C318.2,128.6,314.4,123.9,314.4,123.9z"/>
		<path class="st5" d="M327.2,150.4c-1.7-3.1-15.1,13-16.4,17.5c-1.3,4.5,2.1,3.1,3.8,1.9c1.7-1.2,12.5-16.4,12.5-17.9
			C327.2,150.4,328.9,153.5,327.2,150.4z"/>
		<path class="st5" d="M461.6,67.6c0,0-35.5,23.9-49.2,32.8c-13.7,8.9-45.4,38.5-45.4,38.5l-46,50.9l-18.4,23l-22.7,38.8l-4.9,12.6
			l40.1-38.3l47.7-41.2l37.9-35.5l36.2-39.1l19.8-31.1L461.6,67.6z"/>
		<polygon class="st5" points="256.1,318 242.7,328.9 238.4,338.3 243.1,337.8 254.7,328.8 258.8,318 		"/>
		<path class="st5" d="M217.8,254.1l-0.5,7.8l3,8.2c0,0,3.7,5.8,4.8,5.8c1.1,0,0.9-11.6,0.9-11.6l-4.4-9.3L217.8,254.1z"/>
		<path class="st5" d="M150.6,161.4c0,0-7.4,14.9-6.7,34.4c0.7,19.6,6.4,34.7,9.2,45.3c2.8,10.6,14.8,43.6,18.5,53.1
			c3.6,9.5,14.4,34.6,16.5,62.6c2.1,28,5.8,43,6.7,49.4c0.9,6.4,2.3,2,2.3,2l4.5-39.1l-3.6-75.2l-14.8-66.2L161.2,178L150.6,161.4z"
			/>
		<path class="st6" d="M480.4,161c0,0-18,5.6-20.7,9.4c-2.7,3.8-14.2,14.6-15.3,17.3c-1,2.7-8.4,13.8-8.4,16.7
			c0,2.9,1.5,4.8,3.6,4.1c2.1-0.7,24.9-11.3,27.5-14.4c2.5-3.1,20.1-24.4,20.7-26.8c0.6-2.4-2.3-6.4-4.8-6.4
			C480.4,161,480.4,161,480.4,161z"/>
		<path class="st6" d="M400.6,184.8c0,0-13.8,24.9-15.5,33.7c-1.7,8.8-3.8,13.6-2.1,19.7c1.7,6.1,7.2,17.2,7.2,17.2l10.4-13.6
			l5.7-12.6l1.7-22l-4.6-18.6L400.6,184.8z"/>
		<polygon class="st6" points="403.9,238.3 414.8,235 427.8,235 445,241.1 445,244.7 428.2,251 411,251 398.9,246.4 		"/>
		<polygon class="st6" points="346.7,229.6 333.9,254.1 328.7,281.8 334.8,302.5 340.3,294.2 353.4,264.3 355.7,243 353,232.8 		"/>
		<polygon class="st6" points="355.7,288.1 342.2,299.2 355.7,303.4 376.7,300 398.9,288.1 403.5,283.1 389.6,281.6 374.2,282.8 		
			"/>
		<polygon class="st6" points="293.1,346.3 282.4,359.3 293.1,362.7 312.3,360.8 333.5,349.5 346.5,336.7 319.5,338.4 		"/>
		<polygon class="st6" points="295.8,334 300.4,316.6 298.1,297.1 291,279.9 283.4,286.8 271.1,311.1 267.9,331.2 270.2,347.6 
			278.4,362.7 291.8,345.3 		"/>
		<polygon class="st6" points="240.8,407.2 231.4,417.9 250.3,427 270.2,427 291.6,414.5 289.3,411.5 266.7,405 250.1,405 		"/>
		<polygon class="st6" points="189.1,464.4 180.1,476.4 194.5,484.2 212.5,487.4 229.9,486.2 245.5,478.2 248.2,475.5 236.9,469 
			215.3,463 199.8,463 		"/>
		<polygon class="st6" points="148,524.7 158.5,532.2 170.3,534 176.3,534 172.7,529.3 161.9,523 149.5,523 		"/>
		<polygon class="st6" points="151,496.2 141.8,475 131.8,462.6 119.5,452.6 114.9,451.1 113.6,462.6 116.2,484.6 123.3,504.3 
			136.7,519 146.8,524.7 151,518.2 		"/>
		<polygon class="st6" points="151,419.1 151,429.1 156.7,451.1 168.1,468.5 179.7,475.8 183,469.6 183,459.3 177.3,443.4 
			164.6,425.8 151,417.4 		"/>
		<polygon class="st6" points="155.9,408.6 160.8,417.4 170.5,420.1 166.3,414.3 		"/>
		<polygon class="st6" points="228.6,348.8 222.6,357 221.5,378.5 223.7,395.6 230.4,412.6 236.4,409.7 243,397.7 243,372.1 
			236.7,353.1 		"/>
		<path class="st7" d="M280.5,403.5c0,0,15.5,5.7,17.5,11.5c2.1,5.9,6.5,12.8,1.7,37.5c-4.8,24.7-6,25.8-6.3,37.7
			c-0.3,11.9,2.5,18.9,3.4,22.4c0.8,3.6,3.6,19.1,11.1,4c7.5-15.1,11.1-25.6,12.4-30.8c1.3-5.2,2.5-26.2,2.5-26.2s10.1,21,10.1,22
			c0,1,9.7,19.3,16.6,25.6c6.9,6.3,17.9,20.7,16.7-4.7c-1.1-25.4-5.9-34.8-6.3-36c-0.4-1.3-4.8-14-4.8-14L379,457
			c0,0,21.6,0.4,27.8-1.7c6.2-2.1,13.7-7.9,13.7-7.9l-4.6-5.7l-54.9-18.8l10.8,1.3c0,0,19.6,0.2,27.1-2.7c7.5-2.9,13.5-6.4,0.6-11.7
			c-12.9-5.3-32.3-6-37.7-5.5c-5.3,0.5-34.9,1.7-35.3,1.7c-0.5,0-15.1-3.6-16.3-4.1c-1.2-0.5-15.8-2.8-22.2-0.7
			C281.5,403.3,280.5,403.5,280.5,403.5z"/>
		<g>
			<path class="st2" d="M341.9,12.5c0.2,0.9,0.7,1.6,1.5,2.4c1.7,1.7,3.4,3.4,5.1,5.2c0.8,0.8,1.6,1.5,2.4,2.3
				c0.3,0.3,0.7,0.6,1.1,0.8c0.1,0.1,0.2,0.1,0.3,0.1c0.1,0.1,0.1,0.2,0.2,0.3c0.9,0.6,2.1,0,1.8-1.2c-0.1-0.3,0.2-1-0.3-1.9
				c-0.5-1-1-1.8-1.6-2.7c-1.7-2.4-5.7-9-9.4-7.9C342.1,10.3,341.5,11.5,341.9,12.5C341.9,12.5,341.8,12.5,341.9,12.5z"/>
			<path class="st2" d="M325.1,19.8c2.7,2.3,6.1,2.5,8.8,5.2c3.2,3.2,5.7,7.3,8.1,11.2c-0.5,0.8-0.4,1.7-0.4,2.8
				c0.1,1.8,0.3,3.5,0.3,5.3c0,1.5,2.1,1.5,2.3,0.1c0.2-1.6,0.3-3.1,0.3-4.7c0-0.5,0-0.9,0-1.3c1-0.1,1.8-1.1,1.2-2.2
				c-3-5.3-5.2-10.9-9.5-15.4c-2.6-2.8-7.9-5.8-11.1-2.5C324.8,18.7,324.6,19.4,325.1,19.8z"/>
			<path class="st2" d="M319.7,26.5c1.5,1,3.1,0.6,4.7,0.6c2.3,0.1,4.2,1.3,5.7,2.9c1.4,1.5,3.6-0.6,2.3-2.2
				c-2.4-2.7-10.2-7.5-13.1-3C318.9,25.5,319.1,26.1,319.7,26.5z"/>
			<path class="st2" d="M309.7,37.4c2.3,0.7,5.3,2.1,6.8,4c1.1,1.5,3.7-0.3,2.7-1.9c-1.9-3.2-4.8-6.2-8.8-6.6
				C307.7,32.6,307.3,36.7,309.7,37.4z"/>
			<path class="st2" d="M323.2,48.6c-2.9,0-5.8-0.1-8.6-0.2c-2.6-0.2-6-1-8.4,0.4c-0.9,0.5-1.1,2-0.1,2.6c2.2,1.1,5,0.5,7.4,0.5
				c3.2,0,6.4,0.1,9.6,0C325.1,51.7,325.2,48.5,323.2,48.6z"/>
			<path class="st2" d="M312,79.3c6.6-2.7,12.7-6.8,18.3-11.2c1.6-1.3-0.6-3.6-2.2-2.4c-4.6,3.5-9.4,6.6-14.5,9.2
				c-5.3,2.7-10.5,2.7-15.9,4.3c-1.3,0.4-1.3,2-0.1,2.5C302,83.6,307.8,81,312,79.3z"/>
			<path class="st2" d="M312.9,89.2c3.5-0.1,6.3-2.8,9-4.8c4.1-3,8-6.2,12-9.2c1.4-1.1-0.5-3-1.9-2c-3.5,2.6-7,5.3-10.6,7.8
				c-3.1,2.1-7.2,3.5-9.4,6.6C311.6,88.2,312.2,89.2,312.9,89.2z"/>
			<path class="st2" d="M327.7,92.6c2.7-1.9,4-5.4,5.6-8.2c1.9-3.2,3.9-6.4,5.8-9.7c0.9-1.6-1.5-3.1-2.5-1.5c-2,3.2-4,6.4-6,9.6
				c-1.7,2.8-4.2,5.5-4.7,8.8C325.9,92.6,326.9,93.2,327.7,92.6z"/>
			<path class="st2" d="M337.3,87.3c1.6-0.9,2.4-2.7,3.3-4.3c1.1-1.8,2.1-3.6,3.2-5.3c0.9-1.5-1.4-2.8-2.3-1.4
				c-1,1.5-1.9,3.1-2.9,4.6c-1.1,1.7-2.6,3.5-2.7,5.6C335.9,87.1,336.7,87.6,337.3,87.3z"/>
			<path class="st2" d="M335.4,108.9c-0.1,3.7,4.3,8,7.5,4.5c0.3-0.4,0.5-0.9,0.2-1.3c-0.6-1.1-1.1-1.9-2.3-2.5
				c-0.6-0.3-0.7-0.8-0.8-1.5c-0.2-3.4,2.2-6.5,4.2-9c1.2-1.5-1.4-3.7-2.7-2.2C338.8,100.3,335.5,104.4,335.4,108.9z"/>
			<path class="st2" d="M350.8,120.1c1.8,0.7,2.9-1.4,2.3-2.8c-1.6-4-1.7-7.9-0.5-12.1c0.8-2.9-3.6-4.1-4.4-1.3
				C346.8,108.2,345.3,118.1,350.8,120.1z"/>
			<path class="st2" d="M362.3,111c0.8-0.3,0.7-1.3,0.3-1.9c-0.9-1.3-2.6-2-3.6-3.2c-1.3-1.5-1.7-3.6-1.3-5.4
				c0.3-1.7-2.3-2.6-2.7-0.8c-0.6,2.6-0.5,5.4,0.7,7.9C356.9,109.9,359.7,112.1,362.3,111z"/>
			<path class="st2" d="M380.9,94.9c-1.4-2.1-2.3-4.3-2.5-6.8c-0.1-2-3.3-2.1-3.2-0.1c0.2,2.9,1,5.4,2.4,7.9c1,1.7,2.8,4.9,5,5
				c0.6,0,1-0.5,1.1-1C384,98.1,381.9,96.3,380.9,94.9z"/>
			<path class="st2" d="M390.8,85.4c0.5-0.6,0.1-1.4-0.7-1.3c-2.5,0.4-4.4-0.5-6.5-1.7c-1.5-0.9-3,1.4-1.5,2.4
				C384.9,86.4,388.2,88.2,390.8,85.4z"/>
			<path class="st2" d="M388.7,72.2c-2,0.1-2.7,3.1-0.6,3.6c3.4,0.7,8.4,2,10.7-1.4c1-1.5-0.3-3.2-1.9-3.4c-1.4-0.1-2.7,0.5-4,0.8
				C391.7,72.1,390.1,72.2,388.7,72.2z"/>
			<path class="st2" d="M389,63.4c1.5,2.3,3.9,2.9,6.4,1.8c2.3-1,5.7-3.3,5.3-6.2c-0.1-0.5-0.5-0.9-1-1c-1.6-0.6-3,0.3-4.2,1.3
				c-0.7,0.5-1.3,0.9-2,1.3c-0.3,0.2-0.6,0.3-0.9,0.5c0,0,0,0,0,0c0-0.1,0-0.1-0.1-0.2C391,59,387.7,61.3,389,63.4z"/>
			<path class="st2" d="M374.1,57.3c8.6-8,19.5-10.3,29.1-16.5c0.6-0.4,0.3-1.4-0.5-1.2c-10.9,2.5-22.1,8.3-30.2,16
				C371.5,56.6,373,58.3,374.1,57.3z"/>
			<path class="st2" d="M372.8,51.6c4.5-5.1,10.2-9.1,15.7-13.1c3-2.2,8-4.3,9.6-7.8c0.2-0.5-0.1-1.2-0.8-1.1
				c-3.9,0.8-7.3,4.3-10.5,6.6c-5.6,4-11.3,8.3-15.8,13.5C370.1,51,371.7,52.7,372.8,51.6z"/>
			<path class="st2" d="M392.7,17.1c0,0,0.1,0,0.1-0.1C392.8,17,392.8,17,392.7,17.1C392.8,17,392.8,17,392.7,17.1z"/>
			<path class="st2" d="M380.9,33.7c3.7-3.4,7.6-6.4,11.1-9.8c2.2-2.1,4.6-4.5,2.9-6.8c-0.5-0.6-1.4-0.6-2-0.1c0.1,0,0.1,0,0.2,0
				c-0.8-0.1-1.4,0.5-2,0.9c-1.5,1.1-2.7,3-4,4.4c-2.8,3-5.5,6.1-8.4,9.1C377.3,32.9,379.3,35.1,380.9,33.7z"/>
			<path class="st2" d="M374.8,27.2c-0.2,1.5,1.8,2,2.7,1.2c2-1.6,3-5.1,3.9-7.4c1.1-2.8,2.7-5.5,2.3-8.5c-0.2-1.4-2.1-1.8-3.1-0.9
				c-1.9,1.8-2.7,4.9-3.6,7.6C376.3,21.8,375.2,24.5,374.8,27.2z"/>
			<path class="st2" d="M364.5,19.1c0.8,2.7,0.8,5.4,0.1,8.1c-0.6,2.4,2.9,3.4,3.6,1.1c1-3.1,1.2-6.3,0.5-9.5
				c-0.6-2.8-2.5-6.9-5.7-7.5c-0.9-0.2-1.5,0.5-1.4,1.3C362,14.9,363.8,16.8,364.5,19.1z"/>
			<path class="st2" d="M357.6,13c0.1-1.6,0.3-3.2,0.6-4.8c0.3-1.4,1-2.6,0.6-4.1c-0.1-0.6-0.8-1-1.3-0.8c-3.4,1.2-3.3,6.7-3.6,9.6
				C353.8,15.3,357.4,15.3,357.6,13z"/>
			<path class="st2" d="M321.7,62.4c-4.3-0.9-8.5-1.9-12.9-2.5c-2.3-0.3-5.4-0.3-6.2,2.5c-0.2,0.8,0.2,1.4,0.9,1.7
				c0.6,0.2,1,0.6,1.6,0.8c1.3,0.4,3,0,4.3-0.1c3.8-0.1,7.9,0,11.7,0.5C323,65.6,323.4,62.7,321.7,62.4z"/>
			<path class="st2" d="M314.2,71.1c1.8-0.1,3.5-0.3,5.3-0.3c2,0,2-2.8,0.1-3c-1.6-0.2-3.1-0.3-4.7-0.3c-1.6,0-3.1-0.3-4.3,0.8
				c-0.5,0.5-0.5,1.2-0.1,1.7C311.5,71.2,312.8,71.2,314.2,71.1z"/>
			<path class="st2" d="M374.1,94.6c-1,1.6-2.1,3.4-1.8,5.4c0.3,2,2.2,4.5,4.4,3.4c0.4-0.2,0.6-0.6,0.6-1c0.1-1.5-1.2-1.7-1.6-2.9
				c-0.3-1,0.8-2.4,1.3-3.1C378.2,94.5,375.3,92.6,374.1,94.6z"/>
			<path class="st2" d="M358.7,51.8c0.4,1.6,2.8,1,2.5-0.6c-0.6-2.8-1.3-5.6-1.9-8.4c-0.5-2.3-0.7-5.4-2.3-7.3
				c-0.5-0.5-1.4-0.3-1.6,0.4c-0.6,2.4,0.6,5.2,1.2,7.5C357.3,46.2,358,49,358.7,51.8z"/>
			<path class="st2" d="M360.7,47.9c-0.2,1.9,2.7,1.9,2.9,0.1c0.2-1.5,0.5-2.9,0.9-4.4c0.4-1.5,0.8-2.6-0.3-3.8
				c-0.5-0.5-1.2-0.4-1.6-0.1c-1.2,0.9-1,2.2-1.2,3.6C361.2,44.8,360.8,46.3,360.7,47.9z"/>
			<path class="st2" d="M339.7,47.5c-1,0.3-1.4,1.1-1.3,2.1c0.2,1.5,1.1,2,2.4,2.6c1.5,0.7,2.9,1.3,4.3,2.1c2,1.1,3.7-1.8,1.8-3
				c-1.2-0.8-2.2-1.6-3.3-2.5C342.4,47.8,341.4,46.9,339.7,47.5z"/>
			<path class="st2" d="M330.9,52.6c0.8,1.5,2,2.5,3.5,3.3c2,1.1,3.7-1.7,1.9-3c-0.9-0.6-1.4-1.2-1.8-2.2
				C333.5,48.3,329.6,50.3,330.9,52.6z"/>
			<path class="st2" d="M351.7,59.6c0.1,2.3,0.4,4.7,1.1,6.9c0.5,1.6,3.2,1.5,3-0.3c-0.2-2.3,0.4-4.7-0.1-7
				C355.2,56.9,351.6,57.2,351.7,59.6z"/>
			<path class="st2" d="M341.5,68.7c-0.7-0.7-1.6-0.1-1.5,0.8c0.6,5.2,5.7,8,10.4,9.2c0.8,0.2,1.5-0.2,1.8-0.7
				c0.5,1.3,2.3,1.8,3.4,0.4c0.1-0.2,0.3-0.4,0.5-0.5c2.5-2.5-2.5-5.5-3.5-2.1c-0.1,0.2-0.1,0.4-0.2,0.5c-0.2-0.4-0.5-0.7-1-0.8
				c-2-0.5-3.7-1.2-5.4-2.4C344.3,71.9,343,70.1,341.5,68.7z"/>
			<path class="st2" d="M338.5,66c-0.6-0.1-1.9,0.2-2.2,0.1c-2.3-1.1-3.7,2.1-1.4,3.1c1.1,0.5,2,0,3.1,0.1
				C339.9,69.5,340.4,66.4,338.5,66z"/>
			<path class="st2" d="M349.9,86.7c0.4,0.2,0.7,0.5,1.1,0.7c1.9,1.4,4-2.1,1.9-3.1c-0.4-0.2-0.8-0.4-1.1-0.6
				C349.7,82.5,348,85.4,349.9,86.7z"/>
			<path class="st2" d="M331,98.6c-0.6-0.4-1.3-0.8-1.9-1.1c-2-1.2-3.7,1.5-2.3,2.9c-0.3,0.1-0.6,0.3-0.8,0.6c0,0.1-0.3,0.1-0.5,0.1
				c-1.6,0.3-1.2,2.3-0.1,2.8c1.2,0.5,2.5-0.2,3.3-1.2c0.2-0.3,0.3-0.6,0.2-0.9c0,0,0,0,0,0C331.1,103.2,333.2,99.9,331,98.6z"/>
			<path class="st2" d="M363.8,86.2c3.1-2.2,4.3-5.6,2.4-9.1c-0.4-0.8-1.5-0.7-2-0.1c-1.2,1.6-0.9,4.2-2.5,5.4
				C359.4,84,361.5,87.8,363.8,86.2z"/>
			<path class="st2" d="M364.4,71.9c-1.4-1.3-1.8-2.4-2.4-4.1c-0.9-2.6-4.6-1.7-4.1,1c0.4,2.5,2,4.7,4.3,5.8
				C363.9,75.4,366,73.3,364.4,71.9z"/>
			<path class="st2" d="M377.1,78.7c2.4,0,5.7-2.3,4.8-5c-0.2-0.5-0.6-1.1-1.3-1c-1.2,0.1-2,0.7-3,1.4c-1,0.7-1.2,0-1.5-1
				c-0.7-2.3-4.3-1.5-3.7,0.9C373.1,76,374.5,78.6,377.1,78.7z"/>
			<path class="st2" d="M381.5,58.2c-0.9-0.5-1.6,0-2.4-0.5c-0.1,0-0.1,0-0.2-0.1c0-0.2,0-0.3-0.1-0.5c-0.3-0.7-0.8-1.1-1.6-1
				c-3.6,0.7-2.9,5.4-2.1,7.9c0.7,2.4,4.2,1.6,3.8-0.9c-0.1-0.5-0.2-1-0.2-1.5c1.5,0.3,3.1,0.2,3.6-1.4
				C382.6,59.4,382.3,58.7,381.5,58.2z"/>
			<path class="st2" d="M246.7,123.8c-0.8,3.1-1.7,6.3-2.5,9.4c-0.4,1.6,1.8,2.8,2.7,1.5c-0.3,1-0.6,2-0.9,3c-0.8,2.3,2.8,3.3,3.6,1
				c1.4-3.7,2.3-7.6,2.3-11.6c0-1.3-0.2-2.9-0.5-4.4c0-0.1,0-0.1,0.1-0.2c1.1-3.5,3.3-7.5,2.7-11.2c-0.2-1.2-1.7-1.5-2.5-0.8
				c-2,1.7-2.7,4.4-3.3,6.9c-0.2-0.2-0.4-0.3-0.6-0.4c-0.9-0.5-1.7,0.1-1.8,1C245.6,120,246.1,121.9,246.7,123.8z"/>
			<path class="st2" d="M229.3,121.7c1.5,2.4,3.2,4.1,5.6,5.6c1.8,1.1,3.3-1.5,1.7-2.8c-0.8-0.6-1.3-1.9-1.8-2.7
				c-0.8-1.3-1.6-2.7-2.2-4.1c-0.6-1.5-2.4-4.8-4.4-3.1C226,116.5,228.3,120,229.3,121.7z"/>
			<path class="st2" d="M220.2,127.6c1.9,1.8,3.4,4.1,4.7,6.4c1.1,1.9,3.7,0.4,2.9-1.6c-1.7-4.2-5.9-11.4-11.1-11.3
				c-1,0-1.5,1-1.2,1.8C216.4,125,218.6,126.1,220.2,127.6z"/>
			<path class="st2" d="M199.3,129.3c2.3,1.2,5.1,1,7.5,1.9c2.8,1,4,3.5,4,6.4c0,1.8,2.5,1.8,2.7,0.1c0.4-3.5-0.7-6.2-3.4-8.3
				c-2.6-2.1-7.7-3.3-10.8-1.9C198.6,127.8,198.5,129,199.3,129.3z"/>
			<path class="st2" d="M199.8,144.5c1.3,0.7,2.5-1.2,1.2-2c-1.4-1-2.9-1.9-4.2-3c-1.2-1-2.2-2.8-3.7-3.2c-0.4-0.1-1.1,0.1-1.2,0.6
				C191.3,140.4,197.3,143.1,199.8,144.5z"/>
			<path class="st2" d="M194,146.2c-1.5-0.7-2.7,1.2-1.4,2.2c0.3,0.3,0.7,0.5,1,0.7c1.5,0.9,2.9-1.4,1.4-2.3
				C194.7,146.6,194.4,146.4,194,146.2z"/>
			<path class="st2" d="M186.8,166.8c0,0.3,0.2,0.6,0.4,0.8c2.1,1.2,5.5-1.2,7.3-2.1c1.3-0.6,2.6-1.1,4-1.7c3.7,2.5,8.9,3.2,13.1,3
				c2.2-0.1,2.3-3.4,0.1-3.5c-2.6-0.1-5.1-0.8-7.4-2c1.1-0.5,2.3-1,3.4-1.4c1.1-0.4,0.4-2.4-0.7-1.9c-1.8,0.7-3.6,1.3-5.4,1.9
				c-1.7-1-3.3-2-5.2-2.4c-0.9-0.2-2,0.6-1.6,1.5c0.4,1,0.9,1.9,1.5,2.6c-0.9,0.3-1.8,0.6-2.7,0.9
				C191.6,163.3,186.9,164.1,186.8,166.8z"/>
			<path class="st2" d="M191.7,180.8c-0.6,1.6,1.4,3.1,2.8,2.2c3.5-2,6.4-4.7,9.4-7.4c1.7-1.5-0.6-3.7-2.3-2.5
				c-1.2,0.8-2.5,1.5-3.8,2.2c-2.7,0.2-5.3,0.7-7.9,1.5c-1.9,0.6-6.3,1.5-6.8,3.8c-0.1,0.4,0,0.8,0.4,1c1.8,1.1,4.2-0.8,6-1.6
				c1.1-0.5,2.3-0.9,3.4-1.2C192.4,179.4,192,180,191.7,180.8z"/>
			<path class="st2" d="M190.1,195.3c0.1,1.1,1,1.6,2,1.2c2.1-0.8,3.2-3.2,4.8-4.7c2.1-1.9,4.7-3,7.2-4.3c1-0.5,0.9-1.6,0.3-2.2
				c0.7-0.7,1.3-1.5,1.8-2.3c1.5-2.3-2-4.4-3.5-2.2c-1.1,1.5-2.5,2.6-4.3,3.2c-1.9,0.6-2,2.4-1.3,3.5
				C193.6,189.5,190,192,190.1,195.3z"/>
			<path class="st2" d="M217.3,186.8c0,0,0.1-0.1,0.1-0.1c1.5-2.4-2.4-4.8-3.8-2.3c-0.6,1.1-1.1,2.2-0.5,3.4c-0.4,0-0.8,0.2-1,0.6
				c-1.9,3-4.2,5.7-6.7,8.3c-1.9,1.9-4.2,3.6-5.3,6.1c-0.5,1.2,0.9,1.8,1.8,1.5c2.7-1,4.6-4.1,6.4-6.2c2.2-2.6,4.2-5.3,6-8.2
				c0.2-0.3,0.2-0.6,0.2-0.9c0.1,0,0.3,0.1,0.4,0.1l0,0C216.6,189.5,217.5,188.1,217.3,186.8z"/>
			<path class="st2" d="M208.1,209.7c2.1-0.5,2.8-2.5,3.8-4.3c1.2-2.3,2.5-4.5,3.8-6.7c1-1.7-1.5-3.2-2.6-1.6
				c-1.4,2.2-2.8,4.3-4.2,6.4c-1.1,1.7-2.6,3.2-2.1,5.3C206.9,209.5,207.6,209.9,208.1,209.7z"/>
			<path class="st2" d="M215.2,215.7c1.1,1.6,4.2,2,4.7-0.5c0.4-1.8-0.2-3.7-0.1-5.5c0.1-2,0.6-4.1,1.4-6c0.1-0.2,0.2-0.5,0.2-0.7
				c0.7,0.4,1.7,0.4,2.5-0.3c1.1-0.9,1.7-2.2,2.4-3.4c0.9-1.5,1.9-2.9,3.4-4c2.1-1.4,0.3-5-1.9-3.5c-1.6,1-2.9,2.3-4.1,3.8
				c-1.3,1.5-3,3-3.4,5c-0.1,0.3,0,0.5,0.1,0.7c-0.6-0.3-1.5-0.2-2.1,0.6C215.7,205.2,212.4,211.8,215.2,215.7z"/>
			<path class="st2" d="M228.3,215.6c1.7,0.5,2.9-0.8,3.2-2.3c0.2-0.9,0.1-1.8,0.3-2.7c0.3-1.5,0.8-2.9,1.5-4.2
				c1.5-2.8-2.4-5.2-4.2-2.5C227.7,206.3,223.2,214.1,228.3,215.6z"/>
			<path class="st2" d="M246.5,205.9c1.4,2.9,1,6.5,1,9.6c0,2.3,3.3,2.3,3.6,0.1c0.4-3.6-0.2-7.8-2.2-10.9
				C247.9,203.2,245.7,204.3,246.5,205.9z"/>
			<path class="st2" d="M243.1,179.9c-0.2-1.4,0.3-2.6,0.5-3.9c0.1-0.6-0.8-1.2-1.3-0.8c-1.9,1.3-2.4,3.2-2,5.4
				C240.6,182.5,243.4,181.8,243.1,179.9z"/>
			<path class="st2" d="M234.5,179.2c1.4-1.8-1.6-3.5-2.9-1.8c-0.6,0.8-1.9,0.1-2.7,0.5c-0.6,0.3-0.9,0.8-0.9,1.5
				c-0.1,0.8,0.6,1.5,1.3,1.7C231.2,181.8,233.3,180.8,234.5,179.2z"/>
			<path class="st2" d="M210.2,171.8c0-0.7-0.8-1.2-1.5-0.9c-1.1,0.6-1.9,1.3-2.7,2.2c-0.8,1.1,0,2.9,1.2,3.2
				c1.3,0.3,2.2-0.2,3.3-0.9C212.2,174.5,211.6,172.3,210.2,171.8z"/>
			<path class="st2" d="M178.8,151.3c0.1,0.2,0.2,0.3,0.4,0.5l-0.1-0.4c0.1,0.4,0.3,0.7,0.5,1c0.6,0.7,1.5,1,2.4,1.3
				c2.4,0.9,4.9,1.8,7.2,2.9c2,1,3.6-1.7,1.8-2.9c-2.1-1.5-4.2-2.8-6.6-3.9c-1.3-0.6-2.6-1.2-3.9-0.7c-0.2,0-0.4,0-0.6,0.1
				C178.9,149.4,178.2,150.4,178.8,151.3z"/>
			<path class="st2" d="M211.4,149.1c2.3,1.2,4.8,2.1,7.3,2.7c2.2,0.5,3.2-2.8,1-3.4c-2.5-0.7-4.8-1.7-7.1-3
				c-1.8-1.1-3.1-2.4-5.2-2.1c-0.8,0.1-1.3,1.1-1.1,1.8C207.1,147.4,209.4,148.1,211.4,149.1z"/>
			<path class="st2" d="M228.7,139c-0.3-0.1-0.8-0.3-1-0.4c-0.7-0.8-1.7-1.2-2.6-0.6c-1.2,0.8-1.6,2-1,3.3c0.7,1.6,2.7,1.4,4.1,1.6
				C230.4,143.1,231,139.4,228.7,139z"/>
			<path class="st2" d="M217.1,168.5c-1.1,1.7-1.3,3.4,0.7,4.5c1.8,1,4.1-1.2,2.9-2.8C221.3,168.1,218.4,166.4,217.1,168.5z"/>
			<path class="st2" d="M220.2,196.5c-0.2-0.8-0.4-1.6-0.6-2.4c-0.6-2.5-4.3-1.6-3.8,0.9c0.2,0.8,0.4,1.6,0.5,2.4
				C216.9,199.9,220.8,199,220.2,196.5z"/>
			<path class="st2" d="M232.6,147.3c-0.3,1.8,0.9,4.1,2.8,4.6c2,0.6,3.4-0.6,4.3-2.2c0.4-0.7,0.4-1.3,0.1-1.8c0.1,0,0.1,0,0.2,0
				c2-0.5,1.3-3.4-0.7-3.1c-0.9,0.2-2.2,0.4-3.1,0.3c-1-0.1-1.6,0.6-1.9,1.4c0,0,0,0,0,0C233.6,146.3,232.8,146.6,232.6,147.3z"/>
			<path class="st2" d="M234.6,129.8c0,0,0-0.1-0.2-0.3c0.5,0.6,0.2,0.4,0.1-0.2c-0.1-0.5-0.6-0.8-1.1-0.7c-0.4,0.1-0.7,0.3-1.1,0.5
				c-0.8,0.4-1.2,1.5-0.7,2.3c0.4,0.7,0.9,1,1.6,1.4c1.9,1,3.5-1.6,1.8-2.8C234.7,129.8,234.6,129.8,234.6,129.8z"/>
			<path class="st2" d="M265,125.7c0.2-0.7-0.2-1.3-0.9-1.6c-2.5-1-5.3,3.6-6.4,5.2c-1.4,2-3.6,4.8-3.3,7.4c0.2,1.2,2.2,1,2.1-0.2
				c-0.1-1.7,2.9-4.6,3.9-5.7C261.7,129.3,264.6,127.5,265,125.7z"/>
			<path class="st2" d="M264.2,138.6c-2.2,0.6-3.2,3-4.5,4.7c-1.8,2.3-3.6,4.7-4.9,7.3c-1,1.9,1.5,3.4,2.8,1.7
				c1.7-2.2,3.7-4.2,5.5-6.3c1.6-1.8,3.7-3.6,3.3-6.2C266.1,139,265,138.4,264.2,138.6z"/>
			<path class="st2" d="M275.6,172.2c0.4-0.2,0.9-0.8,0.8-1.3l0,0c0.3-0.8-0.1-1.9-0.9-2.2c-2.5-1.3-4.6,0.5-5.8,2.7
				c-0.9,1.7,1.4,3.8,2.7,2.2c0.3-0.3,0.5-0.6,0.8-0.9c0.6-0.6,1-0.2,0.2-0.6c0.4,0.2,0.7,0.3,1.1,0.2
				C274.8,172.3,275.2,172.4,275.6,172.2z"/>
			<path class="st2" d="M280.5,146.2c1.3-1.1,0.2-2.9-1.2-3.1c-3.1-0.4-7,2-9.8,3.2c-1.7,0.7-3.5,1.5-5.2,2.3
				c-0.5,0.2-2.4,1.4-2.8,1.3c-1.8-0.6-2.5,2.1-0.8,2.8c2.3,0.9,6.1-1,8.2-1.8c2.2-0.8,4.3-1.7,6.4-2.5
				C277,147.8,279,147.4,280.5,146.2z"/>
			<path class="st2" d="M274.6,164.4c2.5-0.7,5.3,0,7.7-0.8c0.8-0.2,1.1-1.2,0.5-1.8c-0.7-0.8-1.6-1.2-2.6-1.5
				c3.4-1.7,7-3.2,9.7-5.7c0.8-0.7,0.3-2-0.8-2.1c-5.4-0.4-10.7,3.7-14.9,6.6c-1.6,1.1-3.1,2.3-4.6,3.5c-1.7,1-3.3,2.3-4.7,3.7
				c-0.3,0.3-0.4,0.6-0.4,0.9c-1.5,1.4-2.9,2.9-4.3,4.4c-1.3,1.3,0.6,3.3,1.9,2c3.4-3,6.9-5.8,10.5-8.4
				C273.3,164.9,273.9,164.6,274.6,164.4z"/>
			<path class="st2" d="M275.5,191.3c0.3-0.6,0.1-1.2-0.4-1.6c-0.8-0.6-1.7-0.6-2.6-0.5c-0.2-0.2-0.3-0.5-0.6-0.6
				c-0.1-0.1-0.3-0.2-0.5-0.2c-0.5-0.3-0.5-0.3-0.2-0.2c0.6-1.6-2-2.8-2.8-1.2c-0.3,0.7-0.4,1.4-0.2,2.1c-0.7-0.1-1.4-0.3-2.1-0.7
				c-2-1-3.7,1.8-1.8,2.9c1.7,1,3.4,1.5,5.3,1.8C271.6,193.3,274.5,193.1,275.5,191.3z"/>
			<path class="st2" d="M238.6,156.6c0.5,1.6,2.3,2.4,3.5,3.5c1.1,1,2.2,1.9,3.3,2.8c-0.4,0.7-0.5,1.6,0.3,2.5
				c1.5,1.7,3.9,2.2,6.1,2.3c2.5,0.2,3.2-3.9,0.7-4.4c-0.9-0.2-1.8-0.3-2.6-0.4c-0.3,0-0.5-0.1-0.7-0.1c0.1-0.6-0.1-1.1-0.7-1.5
				c-1.6-1.1-3-2.5-4.4-3.8c-1.1-1-2.4-2.7-4-2.5C239.2,155.1,238.4,155.7,238.6,156.6z"/>
			<path class="st2" d="M244.7,185.4c-1.4,2.1,2.5,3.9,3.2,1.4c0.3-1-0.3-2.3,0.1-3.1c0.7-1.6-2.1-2.9-2.9-1.3
				c-0.2,0.5-0.5,1-0.5,1.6C244.6,184.3,244.9,185.1,244.7,185.4z"/>
			<path class="st2" d="M241.7,193.3c2.4-0.5,1.5-3.9-0.9-3.6c-0.1,0.1-0.2,0.2-0.3,0.3c-0.2-1.9-3.2-1.8-3.6-0.1
				C236.3,193.1,239.3,193.9,241.7,193.3z"/>
			<path class="st2" d="M218.1,187.4c-1.2,0.7-1.2,2.3-0.1,3.1c2.8,2.1,6.8-0.8,8.3-3.2c1.2-1.9-1.7-3.6-3-1.8
				C221.9,187.5,220,186.2,218.1,187.4z"/>
			<path class="st2" d="M250.2,190.4c-0.1,0.1-0.1,0.2-0.2,0.3c-1.2,0.5-1.6,2.3-0.3,3.1c1.3,0.8,2.8-0.4,2.6-1.7
				c0.1-0.1,0.1-0.2,0.2-0.3C253.3,190.3,251.2,189,250.2,190.4z"/>
			<path class="st2" d="M259.6,210c0.3-0.3,0.5-0.6,0.6-1c0.3-0.9-0.2-2-1-2.5c-1.1-0.6-2.2-1.2-3.3-1.7c-0.3-0.1-0.6-0.2-0.8-0.4
				c0.4-1.3-1.1-2.9-2.4-2.1c-5,3.1,1.6,6.6,4.3,7.9C257.7,210.7,258.9,210.8,259.6,210z"/>
			<path class="st2" d="M259.3,192.7c1.2-2.3-2-4.3-3.4-2.1c-1,1.6-1.6,3.5-1,5.4c0.6,1.9,2.7,3.7,4.7,2.7c0.5-0.2,0.7-0.7,0.7-1.2
				C260.5,195.4,258.2,194.8,259.3,192.7z"/>
			<path class="st2" d="M289.2,176.5c1.6-5.2-3-7.4-7.4-6.4c-4.3,1-7.9,3.6-11.2,6.4c-1,0.8,0.2,2.3,1.3,1.8c2.3-1,5.1-2.4,7.6-3.5
				c1.6-0.7,3.2-1.2,4.9-1.2c1.7,0,2.5,1.7,3.1,3.1C287.9,177.4,289,177.2,289.2,176.5z"/>
			<path class="st2" d="M179.2,297.9c-5.1-14-10.1-28-13.7-42.5c-2.6-10.4-0.5-19.2,6-0.2c2.6,7.7,3.3,15.9,5.8,23.7
				c0.2,0.7,1.4,0.7,1.4-0.1c-0.5-16.6-5.1-33.3-16.5-45.6c-0.7-0.8-2.3-0.3-2.2,0.9c3.5,48.6,34.4,89.9,33,139.4
				c0,0.8,1.2,0.8,1.3,0C197.1,347.2,188.1,322.2,179.2,297.9z"/>
			<path class="st2" d="M391.7,217.4c-0.3,9.5-3.9,18.9-3.5,28.3c0,0.7,1.1,1.2,1.4,0.4c3.8-8.6,4.5-19.4,4.3-28.7
				C393.9,216,391.8,215.9,391.7,217.4z"/>
			<path class="st2" d="M490.1,162c-23.4-7.3-52.4,23.6-56.7,45.8c-0.5,0.2-1.1,0.3-1.6,0.5c-1.1,0.3-1.2,1.8-0.3,2.2
				c-8.3,8.7-16.8,17.3-25.4,25.7c5.7-17.8,3.9-40.2-3.8-52.7c-0.6-1-2-1.1-2.7-0.1c-12.1,18.2-27.2,50.4-12.1,70.9
				c-12.9,12.4-26,24.6-39.1,36.8c-0.4,0.2-0.8,0.4-1.2,0.6c-0.4,0.3-0.6,0.7-0.6,1.1c-1.7,1.6-3.5,3.3-5.2,4.9
				c-0.1,0-0.2-0.1-0.3-0.1c6.5-11.1,10.8-24.9,13.9-36.2c3.1-11.4,5.1-26.8-5.9-34.5c-0.5-0.3-1.3-0.3-1.7,0.2
				c-15.1,16.4-28.8,55.9-13.9,76.1c-0.2,0.6-0.5,1.2-0.7,1.8c-0.1,0.3-0.1,0.6,0,0.9c-1.7,1.6-3.4,3.2-5.2,4.9
				c-10.7,10-21.1,20.4-31.4,30.8c8.2-20.8,8.3-46.4-3.3-63.3c-0.7-1-1.8-1.2-2.8-0.5c-21.3,15.6-33,62.8-13.7,84.3
				c-10.6,11.2-21,22.5-31.3,33.9c3-16.6-0.3-35.6-9.9-47.7c2.3-4.9,4.6-9.8,7-14.7c0.3,0.1,0.7,0.2,1.1-0.2
				c4.4-4.5,8.7-8.7,13.8-12.4c-1.8,7.8-9.9,12.1-16,16.6c-0.5,0.4-0.1,1.4,0.5,1.3c9.5-0.5,18.6-11.7,18.7-20.9c0-1-1.2-1.8-2-1.3
				c-4.7,3-9.1,6.6-12.9,10.7c-0.1,0-0.1,0-0.2,0c8.1-16.9,16.4-33.6,24.4-50.6c8.6-11.4,17.4-22.7,28-32.7
				c21.2-20.3,44.7-38.5,66.5-58.2c38.5-34.9,78.9-71.3,101.4-119c0.6-1.2-0.6-2.8-1.9-2c-46.6,27-88.1,60.7-123.3,101.5
				c-16.5,19.1-36.3,39.8-49.8,62.7c6.9-17.9,12.9-36.2,19.3-54.4c0.1,0,0.3,0,0.4-0.1c8.3-5.1,16-15.1,17.7-24.7
				c0.2-1-0.7-2-1.7-1.4c-4.1,2.4-7.6,6.1-10.6,10.1c5.5-15.1,11.6-30.1,18.7-44.5c0.4-0.9-0.8-1.6-1.3-0.8
				c-4.6,7.1-8.6,14.7-12.2,22.5c1.2-5-0.9-10.8-4.6-14.2c-1.1-1-2.7-0.4-2.8,1.1c-0.4,4.7-0.7,9.5,0.2,14.1c0.3,1.5,1,3.4,2.7,3.9
				c0.7,0.2,1.4-0.1,2-0.5c0.2,0,0.5-0.1,0.6-0.3c0.1-0.1,0.1-0.2,0.1-0.2c-12.2,28.1-19.2,59.6-30.5,87.3
				c-5.6,13.9-11.7,27.6-18,41.2c-9.4,12.2-17.8,25.3-26.8,37.6c-0.8,1.1,1,2.6,1.9,1.6c5.4-6.1,10.4-12.5,15.3-18.9
				c-9.2,19.2-18.6,38.3-27.6,57.5c-0.4-0.4-0.8-0.9-1.2-1.2c-0.6-0.6-1.6-0.9-2.4-0.4c-9.8,6.5-10.4,20.9-10.1,31.7
				c-8.5,19.7-16.3,39.7-23.5,59.8c0-0.2,0.1-0.4,0.1-0.5c6.1-40.2,17-79.5,23.5-119.6c0.6-3.6,1.3-7.1,2-10.6
				c0.4,0.2,0.9,0.2,1.4-0.1c8-6,14.1-16.5,17.5-25.8c0.7-1.8-1.7-2.8-2.9-1.8c-3.8,3-6.8,6.7-9.3,10.8c0,0,0,0,0,0c0,0,0,0,0,0.1
				c-1.8,2.8-3.4,5.8-5,8.7c6.6-30.9,15.9-61.1,18.2-92.9c0.1-1.3-1.8-1.3-1.9-0.1c-2.2,20.9-6.9,41.3-11.7,61.7
				c-0.3-6.3-3.5-12.5-9.7-14c-1.2-0.3-2.1,0.5-2.2,1.6c-0.6,4.4-1.1,18.2,5.9,18.2c1,0,1.4-1.6,0.3-1.8c-1.8-0.3-2.2-4.5-2.5-6
				c-0.4-2.6-0.6-5.3-0.5-7.9c6.3,3.3,5.3,13.2,5.2,19.3c0,0.6,0.6,0.9,1.1,0.8c-3.1,12.9-6.2,25.9-8.6,39
				c-3.1,16.4-7.6,32.9-12,49.4c0.5-24.8-2.2-49.9-5.7-73.5c-6.9-45.9-21.9-91.6-46.6-131.1c-0.6-0.9-2.3-1.3-2.8-0.1
				c-15.5,34.9-0.5,78.4,11.6,112.1c7.7,21.4,17.7,41.4,22.3,63.8c5.1,24.1,5.7,48.6,10.7,72.6c-1.2,6.3-2.2,12.7-2.9,19
				c-1,9.7-1.8,19.5-2.5,29.3c-1,3-2,6-3,9.1c-0.4-21-17.6-42.2-35.5-50.6c-1.3-0.6-2.8,0-2.9,1.6c-1.6,21,9.6,51.1,30.6,59.6
				c-8.9,11.7-17.5,23.6-25.9,35.7c0.3-8.7-2.9-18.3-5.6-25.3c-5.6-14.8-16.7-32.1-32.1-38c-1.1-0.4-2.2,0.6-2.2,1.6
				c-1.5,25.1,2.3,59.7,27.3,72.5c0.1,0.2,0.2,0.5,0.3,0.7c0.3,0.6,1,0.5,1.4,0.1c0.5,0.2,0.9,0.5,1.4,0.7c0.1,0.1,0.2,0,0.3,0
				c-0.6,0.4-1.2,0.8-1.7,1.3c-0.7,0.7-0.4,1.5,0.2,1.9c-2.9,4.3-5.7,8.6-8.5,12.9c0.8,0.7,1.6,1.5,2.3,2.3
				c3.2-4.9,6.4-9.7,9.7-14.5c0.1,0.4,0.2,0.8,0.5,1.2c3.5,4.3,10.4,6.9,17.3,8c-2.6,8-5.4,15.9-8.3,23.7c1.3,0.8,2.6,1.9,3.9,2.8
				c3.1-8.6,6.1-17.3,8.9-26c3.4,0.2,6.7,0.1,9.3-0.4c1.4-0.3,2-1.7,1.8-2.9c-0.7-3.9-3.4-6.9-7.1-9.2c4.6-14.4,9.1-28.8,13.6-43.2
				c0.7,0.4,1.4,0.9,2.2,1.3c-1.6,32.4-2.8,64.8-7.3,96.8c1.2,0.6,2.5,1.3,3.5,2.1c4.7-31.9,5.6-64.8,7.7-97.1
				c19.1,7.7,47.4,6.2,59-9.1c0.7-0.9,0.1-2.1-0.6-2.7c-13-9.7-37.7-17.8-55.2-11.8c11.5-14.3,23.3-28.4,35.4-42.3
				c19.8,13.4,47,11.3,64.5-5.1c1.1-1.1,0.6-2.8-0.8-3.3c-15.9-5.4-35-12-50.7-5.6c0.1-0.3,0.2-0.6,0.4-1
				c11.5-13,23.2-25.8,35.1-38.4c0.4,0.5,1.2,0.7,1.8,0.2c0.1-0.1,0.2-0.2,0.3-0.3c0.7,0.3,1.4-0.5,1.3-1.3c0.4-0.4,0.8-0.9,1.2-1.4
				c21,11.3,54.1-8.8,65.5-25.6c0.7-1-0.2-2.4-1.4-2.5c-17-0.5-32.9,2.5-48,9.4c10.3-10.5,20.6-20.9,31.2-31
				c3.9-3.8,7.9-7.5,11.9-11.2c20.2,10.9,48.9-2.8,63.4-17.5c1.2-1.2,0.4-2.9-1.2-3.2c-16.5-2.2-30.7-1.2-45,4.5
				c9.1-8.5,18.2-17.1,27.2-25.7c0.3,0.2,0.7,0.3,1.1,0.1c5.1-2.3,9.2-6.2,12.5-11c14.4,7.7,36.7,3.4,48.9-5.5
				c1.3-1,0.4-2.7-0.8-3.2c-11.5-4.8-25-9-36.7-5.2c7.5-7.7,15-15.5,22.1-23.6c-0.6,0.8-1.2,1.6-1.8,2.5c-0.6,0.9,0.7,1.9,1.5,1.2
				c2.1-1.7,4.1-3.6,6.2-5.4c23.1-4.1,41.6-25.5,51.8-45.2C491.8,163.7,491.3,162.3,490.1,162z M317.2,138c-0.1,0.1-0.3,0.2-0.5,0.3
				c0.2-0.1,0-0.1-0.2-0.6c-0.7-1.4-0.6-3.4-0.7-4.8c-0.1-1.9,0-3.8,0.1-5.8C317.7,130.4,317.5,134.1,317.2,138z M312.6,165.9
				c0.1,0,0.1,0,0.2-0.1c3.2-4.7,6.9-9.8,11.5-13.3c-2.5,6.9-7.9,11.3-12.8,16.4C311.8,167.9,312.2,166.9,312.6,165.9z M348,181.1
				c24.8-23.1,51.9-41.9,70.9-70.5c0.9-1.4-0.8-3.2-2.2-2.4c-13.8,7.5-22,20.1-32.1,31.7c-0.9,1,0.4,2.5,1.5,1.6
				c6.6-5.6,12.1-12,17.8-18.6c2.7-3.1,5.7-5.8,9-8.2c-3.8,5.7-8.1,11.1-12.8,16.1c-14.4,16.3-32.4,29.4-48.8,43.5
				c-21.2,18.2-42.1,38.3-59.4,60.8c0.7-1.2,1.3-2.3,2-3.5c14.5-25.3,34.4-46.5,53.3-68.5c15.9-18.4,33.8-35,52.6-50.5
				c11-9.1,22.6-17.4,34.3-25.5c6-4.1,12.1-8,18.2-12c7.5-4.8,9-6.5,4.3,2.1C431.6,123.1,389,158,351,192.5
				c-20.3,18.4-42.1,35.4-61.9,54.3c-3,2.9-5.9,6-8.7,9.1C299.8,228,323,204.4,348,181.1z M150.9,419.6c17.5,9.5,31.2,29.9,30,50
				c-1.2-2.7-3.1-5.1-4.8-7.5c-2.7-3.8-5.7-7.4-8.6-11.1c-0.8-1.1-2.7,0.3-1.9,1.4c2.3,3.4,4.6,6.9,6.9,10.4
				c2.3,3.5,4.3,7.6,7.3,10.5c-0.2,0.3-0.4,0.6-0.6,0.8C162.4,461.1,150.6,441.3,150.9,419.6z M144.9,521.7
				c-0.4,0.6-0.8,1.2-1.2,1.8c-0.1,0-0.2,0.1-0.3,0.1c0.2-0.5,0.2-1.1-0.3-1.4c-0.7-0.4-1.3-1-1.9-1.4c0.2-8.7-4.9-18.2-9.3-25.1
				c-0.8-1.3-2.9-0.2-2.1,1.1c2.4,4.2,4.2,8.6,5.7,13.2c0.9,2.6,1.4,5.4,2.2,8c-11.1-9.3-16.9-21.5-20.2-36.2
				c-1.6-7.1-2-14.3-2.3-21.5c-0.3-9.6,2.5-7.3,8.7-1.6C139.3,472.8,153,500.9,144.9,521.7z M164.3,531.6c-3.4-0.7-6.7-1.8-9.8-3.2
				c1,0,2.1-0.2,3.1-0.6c0.6-0.3,0.3-1.2-0.3-1.2c-1.3,0-2.7-0.1-4-0.4c-0.7-0.2-1.8-0.5-2.5-0.9c4.8-0.3,10.4,0.3,15,2
				C165.3,528.6,164.8,530.1,164.3,531.6z M172.8,532.5c-1.3,0-2.6-0.1-3.9-0.2c0.3-1,0.7-2,1-3
				C171.2,530.2,172.2,531.3,172.8,532.5z M168.4,519c-0.4,1.4-0.9,2.7-1.3,4.1c-5.5-2.1-12.1-2.7-17.6-1.6c0.3-0.5,0.5-0.9,0.8-1.4
				c9.7-14,19.8-27.7,30.2-41.1c0.2,0.2,0.4,0.3,0.6,0.5C176.7,492.6,172.5,505.7,168.4,519z M226.1,354.7c1.6-4.5,3.3-5.4,4.9-4.5
				c-2.6,5.6-5.2,11.3-7.7,17C223.8,362.8,224.7,358.6,226.1,354.7z M175.8,298.7c-15.6-35.8-30.5-76-28.8-115.7
				c0.4-8.2,0.7-24.8,8.6-11.3c5.4,9.2,9.8,18.9,14.1,28.6c10,22.7,16.6,46.7,21.8,70.8c8.8,41.3,9,81.4,5.5,122.4
				c-0.7,2.9-1.3,5.9-1.9,8.8C189.7,367.4,190.2,331.9,175.8,298.7z M245.7,475.4c0.8,0.6-12.9,7.2-13.8,7.5
				c-6.1,1.8-12.7,1.9-19,1.7c-7.4-0.2-14.6-1.8-21.6-4.1c0.1-1.4,0.2-2.8,0.3-4.2c3.4,0.5,7,0.4,10.1,0.3
				c5.9-0.2,11.5-1.7,16.6-4.6c1.4-0.8,0.3-2.9-1.2-2.2c-5.3,2.5-11,3.4-16.9,3.4c-2.7,0-5.5-0.4-8.3-0.7c0.2-2.5,0.4-5,0.6-7.5
				C208.6,458.7,233.1,467.1,245.7,475.4z M228.7,414.2c-0.5-0.2-1.1-0.5-1.6-0.7c-1.4-0.7-3.3,1.1-1.9,2.3c0.4,0.3,0.8,0.6,1.2,0.9
				c-1.3,1.5-2.6,3-4,4.4c-10,11.4-19.7,23-29.1,34.8c0-0.3,0.1-0.7,0.1-1c7.2-22.3,14.8-44.4,23.6-65.8c0.9-2.1,1.8-4.3,2.7-6.4
				c0.7,10.2,2.7,23.3,9.6,30.7C229.1,413.8,228.9,414,228.7,414.2z M235.5,387.8c0-1.6-2.3-1.6-2.4-0.1c-0.4,5.1-0.6,10.1-0.8,15.2
				c-0.1,2.6-0.3,5.2-0.5,7.8c-0.1,0.1-0.2,0.3-0.3,0.4c-5.7-10.1-8.7-23.2-8.6-35.7c3.4-7.7,6.8-15.4,10.4-23.1
				c1.2,1.6,2.3,3.8,3.3,5.7c3.4,6.6,4.3,14.5,4.6,21.8c0.4,8.7-1.4,16.7-3.8,24.7c-0.4,0.4-0.7,0.8-1.1,1.3
				C236.3,399.7,235.5,393.3,235.5,387.8z M288.8,413.3c-12.7,10.5-25.9,11.7-39.5,8.5c3.7,0,7.5-0.3,11.1-1
				c1.2-0.2,1.1-2.4-0.2-2.3c-8,0.6-15.7-0.9-23.5-1.8c1.7-2.3,3.2-5,4.4-7.7C256,402.3,273.4,407.9,288.8,413.3z M280.4,357.7
				c-0.6-0.2-1.2-0.4-1.8-0.6c0,0,0,0,0.1-0.1c3.4-10.1,4.3-22.6,4.5-33.2c0-1.4-2-1.4-2.1,0c-1,10.7-5.5,22.5-4.1,33.2
				c0,0.2,0.1,0.4,0.3,0.5c-0.2,0.3-0.3,0.6-0.3,0.9c-13.9-21.2-4.7-57.7,11.3-74.7c4.9-5.2,7.7,9,8.5,12.5c2.2,8.6,1.3,18-0.1,26.7
				c-1.8,10.9-6.1,20.5-11.4,29.7C283.7,354.2,282,355.9,280.4,357.7z M343.3,338.1c-7.9,9.1-18.3,15.6-29.5,19.9
				c-6.7,2.5-13,3.3-19.2,2.7c7.2-2.3,14.5-6.8,20.1-10c1.4-0.8,0.2-2.9-1.2-2.2c-4.3,2.4-8.8,4.7-13.3,6.6
				c-4.3,1.8-9.1,2.6-13.5,4.3c-0.3-0.1-0.6-0.1-0.9-0.2c1.7-2.1,3.2-4.2,4.6-6.6c0.7-0.8,1.5-1.5,2.2-2.2
				C308.5,341.9,325.3,338,343.3,338.1z M334.2,298.4c0.2-0.1,0.3-0.2,0.4-0.4c3.7-8.4,4.6-19.1,6.3-28.1c0.3-1.3-1.7-1.9-2-0.6
				c-2.1,7.7-5.4,16.5-6,24.8c-2.6-10.5-0.9-21.9,1.4-32.4c1.7-7.5,4.5-14.9,7.8-21.8c3.4-7,8.9-11.1,11.4-0.8
				c5,20.8-10.3,42.1-18.8,60.8C334.6,299.5,334.4,298.9,334.2,298.4z M399.9,284.4c-10.4,8.7-22.1,14.4-34.6,15.8
				c5.1-1.2,9.8-3.8,13.4-7.6c1-1.1-0.5-2.7-1.6-1.7c-3.8,3.7-8.3,5.5-13.4,6.5c-4.7,0.9-9.9,0.2-14.5,1.7c-0.3,0.1-0.5,0.3-0.6,0.5
				c-1.1-0.2-2.2-0.3-3.3-0.6c2.6-2.5,5.2-4.9,7.8-7.4C368.1,284.1,383.2,281.9,399.9,284.4z M396.6,244.2c-1.1,0-1.6,1-1.1,1.9
				c-0.3,0.5-0.6,1-0.9,1.4c-1.8,1.7-3.5,3.4-5.3,5.1c-5.6-11.3-4.6-23.1-1.6-35.2c1.7-6.6,4.3-13,7.1-19.2
				c0.5-1.1,6.2-10.6,6.1-10.7C411,204.3,406.5,227,396.6,244.2z M443.2,242.6c-6.4,3.5-13.2,5.5-20.7,6c-1.9,0.1-3.8,0.1-5.6-0.1
				c3.9-0.9,7.6-2.8,10.2-4.9c1.1-0.9-0.4-2.5-1.5-1.6c-2.8,2.1-5.9,3.1-9.3,3.7c-3.3,0.5-6.5-0.2-9.8,0.2c-0.4,0-0.6,0.3-0.7,0.6
				c-1.2-0.3-2.5-0.7-3.7-1c0.3-0.5,0.6-1,0.8-1.6c1.2-1.2,2.4-2.5,3.6-3.7C417.6,234,431.8,237.9,443.2,242.6z M484.4,169.2
				c-3.7,6.4-8.4,12.2-13.4,17.6c-7.2,7.7-15.5,12.6-24.5,16.3c5.4-5.5,10.6-11.3,15-17.3c0.9-1.3-1.1-2.5-2.1-1.3
				c-6.2,8-14.7,14.3-21.5,21.7c-0.1,0-0.2,0.1-0.3,0.1c-0.1-0.3-0.3-0.6-0.6-0.7c8-16.9,20.8-33.7,38.7-40.1
				C481.3,163.6,488.6,162,484.4,169.2z"/>
			<path class="st2" d="M234.4,430.7c-7.6,6-17.3,9-24.5,15.6c-0.5,0.5,0.1,1.3,0.7,1c8.8-4.1,17-9.7,24.4-15.9
				C235.6,431,234.9,430.3,234.4,430.7z"/>
			<path class="st2" d="M498.4,310.2c-7.5-0.4-15.7,1.7-22.8,3.7c-0.4,0.1-9.7,3.5-5.7,4.5c0.5,0.1,0.9-0.3,1-0.7
				c0.1,0,0.3,0,0.8-0.2c0.9-0.2,1.8-0.4,2.8-0.7c2.6-0.7,5.2-1.3,7.9-1.8c3.6-0.8,7.4-1.6,11.2-1.9c-1.9,1.1-3.9,1.9-5.9,2.7
				c-0.9,0.2-1.7,0.4-2.6,0.6c0,0,0,0,0,0c-0.1,0-0.1,0.1-0.2,0.1c-6.7,1.5-13.4,2.7-20.2,3.8c-1.3,0.2-1.5,1.4-1,2.2
				c-5.9,1.8-11.9,3.7-17.8,5.7c1.9-1.9,3.6-4.1,5.2-6.5c3.2-4.1,5.9-8.4,8.3-13.1c0.1-0.2,0.1-0.5,0-0.7c0.2-0.4,0.5-0.9,0.7-1.3
				c0.9-1.5-0.9-2.7-2.2-1.8c-7.7,5.9-12,15.1-16.9,23.2c-0.3,0.5-0.2,1,0,1.4c-0.1,0.2-0.2,0.3-0.3,0.5c-9,3.1-17.9,6.3-26.7,9.7
				c0,0,0-0.1-0.1-0.2c2.8-4.2,5.1-8.8,7.1-13.4c3-4.2,5.1-8.9,6.2-14.2c0.3-1.3-1.2-2.2-2.2-1.4c-5.8,4.7-12.4,12.3-14.1,20.3
				c-0.5,0.8-0.9,1.7-1.4,2.6c-0.4,0.9,0.2,2.1,1.1,2.2c0.1,1.1,0.3,2.2,0.6,3.3c-0.4,0.7-0.7,1.5-1,2.2c-3.2,1.3-6.4,2.6-9.6,3.9
				c-1-0.1-2-0.2-3-0.1c-0.7,0.1-1.1,1-0.4,1.4c0,0,0.1,0,0.1,0.1c-5.8,2.4-11.6,4.9-17.3,7.5c-11.5,5.3-23,10.6-34.5,16
				c0.9-1.2,1.8-2.5,2.6-3.8c0.4,0,0.7-0.1,1.1-0.5c7.1-7.8,12.5-16.7,16.1-26.7c0.5-1.3-1.4-2.5-2.3-1.5c-1.7,1.9-3.2,4-4.7,6
				c-0.2,0.1-0.5,0.2-0.7,0.4c-0.1,0.1-0.2,0.2-0.3,0.3l0,0c-3.9,4.7-7.4,9.3-9.4,14.8c-1.9,3-3.8,6-5.8,9c-0.8,1.1,1,2.1,1.8,1.1
				c0.3-0.4,0.7-0.9,1-1.3c-0.2,0.5-0.5,1-0.7,1.5c-0.2,0.5,0,0.8,0.4,1c-2.2,1-4.4,2-6.6,3.1c-0.6-0.1-1.2,0.2-1.5,0.7
				c-3.1,1.4-6.2,2.9-9.3,4.3c-7.2,3.3-14.8,7.9-22.5,12c-0.6-0.2-1.2-0.4-1.8-0.5c0-0.1,0.1-0.2,0.1-0.2c3.2-4.9,5.6-10.3,6.8-16.2
				c0.2-1.2-1.2-2.5-2.2-1.3c-1.7,1.9-3.1,4-4.5,6.2c-1.1,1.6-2.1,3.3-2.8,5c-0.7,1.5-1.5,3.1-2.1,4.7c-0.2,0.4,0,0.7,0.2,0.9
				c-0.1,0.5-0.2,1-0.3,1.5c-0.1,0-0.1,0-0.2,0.1c-0.8,0.5-0.8,1.5-0.1,2c0,0,0,0,0.1,0c0.2,0.4,0.5,0.8,0.9,1
				c-5.8,2.8-11.6,5.2-17.4,6.4c-1.3,0.3-0.8,2.1,0.5,2c6.8-0.9,13.3-4.2,19.6-7.8c2.1,0.6,4.4,1.1,6.4,1.9
				c3.9,1.6,7.4,2.8,11.7,2.8c1.5,0,2.3-2.2,0.9-2.9c-3.1-1.7-7-3.2-10.7-3.3c-0.6-0.3-1.3-0.6-1.9-0.8c-0.4-0.2-0.8-0.4-1.2-0.5
				c1.6-1,3.2-1.9,4.8-2.8c8.1-4.4,16.5-8.4,25-12.2c0.2,0.3,0.3,0.5,0.6,0.6c5.2,2.5,7.6,7,12,10.4c0.8,0.7,2.3-0.4,1.9-1.4
				c-0.4-1.1-0.9-2.1-1.5-3c3.8,2.1,7.7,4,12,5c1.6,0.3,2.6-1.4,1.6-2.6c-3.4-4.2-8.2-8-13.1-10.4c-2.2-1.1-5.5-1.6-5.1,1.7
				c-1.4-0.8-2.9-1.5-4.4-2.1c9.2-4.1,18.6-8.1,27.6-12.2c1.2-0.6,2.5-1.1,3.7-1.6c0.1,0.2,0.2,0.5,0.4,0.7c7,5.2,17.7,9.7,26.4,7.1
				c1.2-0.4,1.6-2.1,0.4-2.8c-5.1-3-12-8.2-18.5-8.7c6.9-2.9,13.9-5.6,20.9-8.2c4.7,2.4,9.9,4.3,14.6,6.6c5.1,2.5,10.3,4.1,15.9,4.4
				c1.2,0.1,2.2-1.7,1.2-2.6c-5.5-4.5-11.8-8.2-18.3-11c-1.2-0.5-2.7-0.9-4-0.9c10.9-4,21.9-7.8,32.8-11.6c-0.2,0.3-0.5,0.6-0.6,0.9
				c-0.4,0.9,1.2,1.7,1.7,0.7c0.6-1.3,4.1-0.1,8,1.6c-4.1-0.5-8.4-0.6-12.3-1.3c-2.2-0.4-3.2,2.9-1,3.3c6.6,1.3,13.3,2.3,20,3.3
				c-6.5,1.1-12.7,0.5-19.6,0.3c-0.8,0-1.2,1.1-0.5,1.6c7.5,4.5,17.9,2.9,25.8,0.4c1.4-0.4,1.7-2,0.7-2.9c0.1-0.6-0.1-1.3-0.7-1.6
				c-2.5-1.5-12.9-7.5-18.7-7.4c8.7-3.1,17.3-6.2,25.9-9.5c7.7-1.1,15.3-2.9,22.5-5.7c0,0,0.1,0,0.1,0l0,0c0.1-0.1,0.3-0.1,0.4-0.1
				c0.9-0.4,1-1.4,0.6-2.1c1.1-0.7,2.2-1.4,3.2-2.2C500.3,311.8,499.5,310.3,498.4,310.2z M353.3,380.2c0.9,0.7,1.7,1.4,2.5,2.1
				c-3.3-1.5-6.5-3.4-9.7-5.2c0.3-0.2,0.6-0.5,0.5-1C346.6,375.8,352.7,379.7,353.3,380.2z M394,365.8c-6.8,0.2-13.1-3.7-19.1-6.7
				c0.7-0.3,1.3-0.6,2-0.8c0.2,0.5,0.7,0.9,1.3,0.8C383.1,358.5,389.1,362.5,394,365.8z M412.9,348c2.3,0.8,4.5,2.3,6.6,3.5
				c2.1,1.2,4.2,2.5,6.3,3.9c-5-1.4-9.6-3.8-14.4-6.2c-0.2-0.1-0.5-0.3-0.7-0.4c0.2-0.3,0.4-0.6,0.2-1
				C410.4,346.5,412,347.7,412.9,348z"/>
			<path class="st2" d="M384,333c-4.2,4.6-8.4,9.6-9.7,15.9c-0.3,1.2,1,2.7,2.2,1.8c0.6-0.4,1.2-0.9,1.8-1.4
				c0.1,1.1,0.4,2.2,1.1,3.2c0.7,0.9,2.1,0.2,1.6-0.8c-0.6-1.1-0.6-2.3-0.3-3.5c0.2,0,0.4-0.1,0.6-0.3c1.2-1.8,2.2-3.7,3-5.7
				c2.1-3.3,3.6-7,5.2-10.6c0.6-1.5-1.9-2.6-2.6-1.1c-0.3,0.7-0.7,1.5-1.2,2.3C385.1,332.5,384.4,332.5,384,333z"/>
			<path class="st2" d="M169.8,397.6c-0.3-0.5-0.6-1-1-1.4c0,0,0.1,0,0.1,0.1c0.6,0.4,1.4,0.2,1.9-0.2c0,0.2,0.1,0.3,0.2,0.4
				c0.2,0.6,0.4,1.2,0.5,1.8c0,1.2,0.2,2.5,0.4,3.7c0.1,0.5,0.5,0.8,0.9,0.8c4.3,14.2,8,28.6,10.1,43.8c0.1,0.8,1.3,0.6,1.3-0.1
				c0.1-17-3.6-33.5-8.9-49.7c0.1-0.5,0.3-1,0.4-1.5c0.3-0.3,0.3-0.7,0.2-1c1.4-6,2.5-12.3,3.6-18.2c0.4-2.1-2.4-2.9-3.2-0.9
				c-1.5,3.5-3.2,7.8-4.4,11.9c-2.8-7.6-5.8-15.2-8.8-22.8c0.4-0.1,0.7-0.3,1-0.8c0.2-0.3,0.3-0.6,0.4-1c0.1,0.4,0,0.7,0.1,1
				c0.3,1.5,2.7,1,2.4-0.6c0,0,0,0,0,0c0.1-0.1,0.2-0.2,0.2-0.3c0.5-2.9,0.6-5.9,0.6-8.8c0.7-2.7,1.3-5.5,1.7-8.3
				c0.3-1.6-1.8-2.2-2.3-0.7c0,0.1-0.1,0.2-0.1,0.4c-0.7-1.3-3-1.7-3.3,0.2c-0.8,4.8-1.6,9.6-2.4,14.4c-4.9-12.1-9.8-24.2-13.5-36.3
				c-1-4.8-2.2-9.4-4.4-13.8c0-0.1-0.1-0.1-0.1-0.1c-0.9-4.1-1.8-8.3-3-12.3c-0.5-1.8-2.8-1.4-3.1,0.3c-0.4,2.6-1.7,18.4,3.1,19.5
				c0.5,6.4,1.8,12.7,4.3,18.7c0,0,0,0,0,0c0,0,0,0,0,0c0,0.1,0.1,0.3,0.1,0.4c0.6,1.5,2.5,1,3-0.2c0.4,0.8,0.9,1.5,1.5,2.2
				c0.4,0.5,1.4,0.2,1.4-0.5c0-0.5-0.1-0.9-0.1-1.4c2.5,8,5.1,15.8,7.8,23.6c-0.1-0.1-0.2-0.1-0.3-0.2c-4.2-6.1-10.3-10.6-16.4-14.5
				c-1.9-1.2-3.6,1.3-2.3,2.8c1,1.2,2,2.4,3.1,3.6c-4-2.4-8.1-4.5-12.5-6.1c-1.9-0.7-3.1,2.2-1.4,3.2c5.9,3.4,11.8,7,18.1,9.8
				c1.9,1.2,3.7,2.4,5.6,3.6c1,0.6,1.9,0.2,2.4-0.5c1.2,0.4,2.5,0.8,3.8,1.1c0.4,0.1,0.7,0,1-0.2c2.5,7.3,5.1,14.5,7.6,21.8
				c-2.8-4.7-6.6-8.8-11.4-11.5c-1-0.6-2.1,0.3-1.9,1.4c1.7,10,9.3,16.7,14.8,24.8C168.9,399.4,170.4,398.6,169.8,397.6z"/>
			<path class="st2" d="M173.9,418.9c-0.1-0.1-0.2-0.2-0.3-0.3l0,0c-5.7-4.7-11.5-9.2-18.2-12.3c-1.3-0.6-2.7,0.5-2.1,2
				c3.6,7.8,9.6,14,18.4,12.9c0.1,0,0.2,0.1,0.2,0.1c0.5,0.3,1,0.3,1.5,0c0,0,0,0,0,0c0.8,0.2,1.3-0.6,1-1.3
				C174.5,419.7,174.4,419.2,173.9,418.9z M158.1,411.1c1.2,0.7,2.3,1.4,3.4,2.2c-0.3,0.7-0.3,1.5,0.6,2c1.9,1.1,3.7,2.3,5.5,3.4
				C163.5,417.9,160.4,414.9,158.1,411.1z"/>
		</g>
		<path class="st8" d="M276.8,402.4c-1.4,1.9-2.2,3.7-1,5.6c1.3-0.6,2.6-1.3,3.9-1.9c4.9,0.2,9.2,2,13.1,4.8
			c14.7,17.1,3.8,43.9,0.7,62.9c-2.9,18.1-0.8,36.8,6.8,53.4c0.4,1,1.8,1.1,2.4,0.2c12.3-18.4,22.2-39.9,20.8-62.3
			c8.6,19.8,19.6,47.7,40.3,55.8c0.6,0.3,1.5,0,1.8-0.6c5.6-8.2,1.8-26.3,0.6-35.8c-0.4-3.6-1.2-7.1-2.1-10.6c3.1,5,6.3,10,9.2,15.2
			c3,5.4,8.9,12.8,10.2,20c-0.8,0.3-1.4,1-1.5,1.9c-0.3,4-0.3,3.9,0,7.8c0.1,1.8,2.9,2,3.4,0.3c0.2-0.8,0.4-1.5,0.6-2.3
			c0.5-0.2,0.9-0.3,1.4-0.5c2.5-0.9,1.7-4.1-0.3-4.8c0-0.2,0-0.4-0.1-0.6c0-0.8-0.4-1.3-1-1.7c-0.9-4.7-3.3-9.2-5.8-13.6
			c-5.9-10.4-12.5-20.5-18.8-30.7c-1.2-3.1-2.4-6.2-3.8-9.3c0.9,0.4,1.8,1,2.7,1.6c5.1,6.7,11.3,12.8,17.5,18.4
			c3.6,3.3,7.7,6.1,11.6,9.1c0.9,0.7,3,2.7,5.1,4.7c-1-0.3-2.1-0.6-3.3-0.8c-1.1-0.2-2,1.4-1.2,2.2c0.8,0.9,1.7,1.6,2.7,2.4
			c0,0.3,0,0.7,0.1,1.1c0.7,2.3,3.7,2.7,5.6,3.5c0.4,0.2,0.7,0.2,1,0.2c0.8,0.2,1.7,0.4,2.7,0.5c0.7,0.1,1.5-0.4,1.7-1.1
			c1.6-5.3-9.1-12.3-12.6-15.2c-6.5-5.3-13.3-10.5-19.5-16.2c1.4,1.1,2.7,2.2,4.1,2.9c10.3,6.2,21.6,10.1,33.2,13.4
			c1.3,0.4,2.4-1,1.9-2c2.3-0.3,2.7-4,0.3-5c-3.5-1.5-6.1-2.6-9.9-3.2c-1.4-0.2-2.2,1.2-1.9,2.3c-1,0.2-1.6,1-1.7,1.9
			c-9.8-3.2-19.5-7.8-27.2-13.8c-2.1-1.7-4.5-4-7-5.9c19.3,6,45.2,0.2,60.7-8.7c1.1-0.6,1.2-1.9,0.2-2.7c-10-8-22.9-8.8-34.7-12.4
			c-15.5-4.7-30-11.7-44.4-19.1c4.4,0,8.9-0.3,13.3-0.7c7-0.7,14-0.5,21.1-1c0.5,0,0.6-0.9,0.1-1c-11.7-3.3-25.1,1.4-37.1,1.4
			c-0.3-0.1-0.5-0.3-0.8-0.4c-2.8-1.4-6.5-3.2-10.8-5c13,1.1,27.2-2,40-1.3c11.6,0.6,23.8,2.1,33.7,8.7c5.8,3.9-13.4,7.8-15.4,8.2
			c-7,1.3-13.9,0.4-20.9,0.3c-0.7,0-1,0.9-0.3,1.2c13.5,4.7,29.9,1.3,42.2-5.2c1-0.5,1.2-1.7,0.6-2.5c-18.9-24.4-59.7-9.9-85.8-11.7
			c-9.6-3.6-20.7-6.6-29.8-5.9c2.4-1.1,4.8-2.1,7.2-3.2c-3.7,0-7.3,0-11,0C286.6,397.8,281.7,400.1,276.8,402.4z M321.1,460.5
			c0.4,20.1-4,36.9-13.6,54.6c-8.4,15.3-10.3-6.5-11.4-14.3c-1.5-10.9,0.2-22.5,1.9-33.4c2.1-13.3,9.4-35,2.6-49.1
			c2.2,2.7,4.2,5.8,6,9c3.3,11,3.5,21.2,1.5,32.9c-1.7,10.4-6.2,21-5.7,31.5c0,0.7,1,0.7,1.2,0.1c4.6-11.8,6.7-25.9,8.4-38.5
			c0.7-5.2,0.8-10.5-0.1-15.7c3.7,8,6.7,16,9.4,22.2C321.2,460,321.1,460.2,321.1,460.5z M357.2,514.2
			c-14.3-9.3-21.8-30.8-28.6-45.6c-7.5-16.2-16.5-47.8-34-60.1c7.9,4.3,14.9,12.2,20.2,18c12.3,13.6,17,31.3,25.8,46.9
			c0.3,0.5,1,0.2,0.8-0.4c-6.9-21-16-40.5-32.3-55.8c-4-3.7-10-9.1-16.3-11.9c23.9,2.7,44.8,23.1,57.3,43.8c0,0.3,0,0.6,0.2,0.8
			c0.1,0.1,0.3,0.2,0.4,0.3c0.6,1,1.1,1.9,1.6,2.9c-0.4,0.3-0.3,1,0.3,1c0.1,0,0.2,0.1,0.3,0.1c1,1.8,1.9,3.5,2.7,5.3
			C357.8,463.9,370.3,522.7,357.2,514.2z M335.8,411.6c17.8,8,34.4,16.9,52.9,23.8c6.7,2.5,14,3.7,20.9,5.6c18.4,5,2.2,9.5-7.1,11.8
			c-16.2,4.1-32.4,3.2-47.7-2.8c-3-5.4-6.4-10.6-10.2-15.5c-3.5-4.6-8.1-9.2-13.3-13.5c4.5,2.9,9,5.8,13.5,8.2
			c13.5,7.4,28.2,14.2,43.9,13c0.5-0.1,0.4-0.8,0-0.9c-22.2-3.6-41-12.5-60-24.3c-10-6.2-21.1-15-33.6-13.4
			c-3.2-0.4-6.4-0.5-9.5-0.2C300,396.9,323,405.8,335.8,411.6z"/>
	</g>
</g>
</svg>